/* XPM */
static const char * a0_xpm[] = {
"47 47 220 2",
"  	c None",
". 	c #000E69",
"+ 	c #001179",
"@ 	c #00117C",
"# 	c #0017A9",
"$ 	c #001ED8",
"% 	c #0023FB",
"& 	c #0024FF",
"* 	c #000E65",
"= 	c #001FDC",
"- 	c #000E64",
"; 	c #0023FD",
"> 	c #001599",
", 	c #001ED6",
"' 	c #000E68",
") 	c #001178",
"! 	c #000E66",
"~ 	c #0018AD",
"{ 	c #001ABD",
"] 	c #001ABC",
"^ 	c #001597",
"/ 	c #0023F9",
"( 	c #0022F5",
"_ 	c #001283",
": 	c #001ED9",
"< 	c #00169B",
"[ 	c #001DD3",
"} 	c #000D61",
"| 	c #0017A6",
"1 	c #0018AF",
"2 	c #0019B7",
"3 	c #001280",
"4 	c #0021EF",
"5 	c #001BC6",
"6 	c #001389",
"7 	c #001FDF",
"8 	c #0021EB",
"9 	c #000D5F",
"0 	c #0022F7",
"a 	c #3E22DF",
"b 	c #5329FF",
"c 	c #5428FF",
"d 	c #5428FE",
"e 	c #5529FF",
"f 	c #5528FE",
"g 	c #351DC4",
"h 	c #4424E4",
"i 	c #562AFF",
"j 	c #572AFF",
"k 	c #592BFF",
"l 	c #4323DF",
"m 	c #4F28DF",
"n 	c #6931FF",
"o 	c #6831FF",
"p 	c #6931FE",
"q 	c #6A32FF",
"r 	c #4725CD",
"s 	c #582CEA",
"t 	c #6B32FF",
"u 	c #6C32FF",
"v 	c #6C33FF",
"w 	c #6E33FF",
"x 	c #532ADF",
"y 	c #5E2EDF",
"z 	c #7D39FF",
"A 	c #7436F8",
"B 	c #7F3AFF",
"C 	c #7F3BFF",
"D 	c #6230E2",
"E 	c #7136F5",
"F 	c #803BFF",
"G 	c #7838F9",
"H 	c #823BFF",
"I 	c #823CFF",
"J 	c #6231DF",
"K 	c #6D36DF",
"L 	c #9042FF",
"M 	c #6D35DE",
"N 	c #9243FF",
"O 	c #843EF7",
"P 	c #8A3FFA",
"Q 	c #9344FF",
"R 	c #9343FF",
"S 	c #6532D2",
"T 	c #9545FF",
"U 	c #9544FF",
"V 	c #7138DF",
"W 	c #7A3BDF",
"X 	c #A14AFF",
"Y 	c #A24AFF",
"Z 	c #A24BFF",
"` 	c #4B2694",
" .	c #A44BFF",
"..	c #A24AFE",
"+.	c #5D2FB4",
"@.	c #6834C5",
"#.	c #A44BFE",
"$.	c #A54CFF",
"%.	c #A64CFF",
"&.	c #A74CFF",
"*.	c #A64DFF",
"=.	c #7E3DDF",
"-.	c #8841DF",
";.	c #B253FF",
">.	c #B353FF",
",.	c #A64EF8",
"'.	c #B453FF",
").	c #B454FF",
"!.	c #B453FE",
"~.	c #B555FF",
"{.	c #B554FF",
"].	c #8642DC",
"^.	c #B655FF",
"/.	c #B756FF",
"(.	c #8B44DF",
"_.	c #9249DF",
":.	c #C25BFF",
"<.	c #C25CFF",
"[.	c #BA59FC",
"}.	c #C45CFF",
"|.	c #C45DFF",
"1.	c #C45BFE",
"2.	c #A651EF",
"3.	c #C65DFF",
"4.	c #C65EFF",
"5.	c #974BDF",
"6.	c #9E4EDF",
"7.	c #D064FF",
"8.	c #D164FF",
"9.	c #8E48CF",
"0.	c #B458EF",
"a.	c #B95BF4",
"b.	c #B158ED",
"c.	c #7A40B8",
"d.	c #D466FF",
"e.	c #A150DF",
"f.	c #A755DF",
"g.	c #DD6CFF",
"h.	c #DD6DFF",
"i.	c #E06FFF",
"j.	c #E16EFF",
"k.	c #AA58DF",
"l.	c #B25DDF",
"m.	c #E975FF",
"n.	c #EC77FF",
"o.	c #B35EDF",
"p.	c #B461DC",
"q.	c #F47DFF",
"r.	c #F47EFF",
"s.	c #F780FF",
"t.	c #F680FF",
"u.	c #B763DC",
"v.	c #AA5ECD",
"w.	c #FD86FF",
"x.	c #683A82",
"y.	c #6A3C83",
"z.	c #FF89FF",
"A.	c #FF88FF",
"B.	c #AA5FCC",
"C.	c #834DA2",
"D.	c #FB8CF8",
"E.	c #FF8FF9",
"F.	c #FF8FF8",
"G.	c #DE7EEC",
"H.	c #DF80EB",
"I.	c #FF91F7",
"J.	c #FB8FF5",
"K.	c #824E9F",
"L.	c #E78BEA",
"M.	c #FF97F2",
"N.	c #FF98F2",
"O.	c #DE85E6",
"P.	c #69427C",
"Q.	c #6A437D",
"R.	c #DF88E6",
"S.	c #FF9AF0",
"T.	c #FF99F0",
"U.	c #E78DE9",
"V.	c #87599E",
"W.	c #FC9DEB",
"X.	c #FF9FEC",
"Y.	c #FFA0EC",
"Z.	c #FFA1EC",
"`.	c #FFA0EB",
" +	c #FFA1EB",
".+	c #FFA2EB",
"++	c #FFA2EA",
"@+	c #FCA0EA",
"#+	c #85599B",
"$+	c #A672B8",
"%+	c #FCA6E6",
"&+	c #FFA8E7",
"*+	c #FFA8E8",
"=+	c #FFA9E7",
"-+	c #FFA9E8",
";+	c #FFAAE7",
">+	c #FFA9E6",
",+	c #FCA9E6",
"'+	c #A673B8",
")+	c #86619A",
"!+	c #E7A1DE",
"~+	c #FBAEE3",
"{+	c #FFB1E4",
"]+	c #FFB0E4",
"^+	c #FFB1E5",
"/+	c #FFB2E4",
"(+	c #FFB2E3",
"_+	c #FBB0E3",
":+	c #E7A3DE",
"<+	c #856197",
"[+	c #826394",
"}+	c #AA80B9",
"|+	c #BC8EC6",
"1+	c #C290C9",
"2+	c #C191C9",
"3+	c #C190C9",
"4+	c #C191C8",
"5+	c #C291C9",
"6+	c #AA82B9",
"7+	c #826494",
"                                                                                              ",
"                                                                                              ",
"                                                                                              ",
"                                                                                              ",
"                                                                                              ",
"                      . + @ @ @ @ @ @ @ @ @ @ @ @ @ @ @ @ @ @ @ @ @ + .                       ",
"                  # $ % & & & & & & & & & & & & & & & & & & & & & & & % $ #                   ",
"              * = & & & & & & & & & & & & & & & & & & & & & & & & & & & & & = -               ",
"              = & & & & & & & & & & & & & & & & & & & & & & & & & & & & & & & =               ",
"            # & & ; >                                                   > ; & & #             ",
"            $ & & >                                                       > & & ,             ",
"          . ; & &                                                           & & % '           ",
"          ) & & &                                                           & & & )           ",
"          @ & & &                                                           & & & @           ",
"          @ & & &                                                           & & & @           ",
"          @ & & &                                                           & & & @           ",
"          @ & & &                         ! ~ { ] ^                         & & & @           ",
"          @ & & &                       ~ / & & & ; (                       & & & @           ",
"          @ & & &                     _ & & : < : & & /                     & & & @           ",
"          @ & & &                     & & [       : & & .                   & & & @           ",
"          @ & & &                   } & & |       1 & & 2                   & & & @           ",
"          @ & & &                   > & % 3       > & & 4                   & & & @           ",
"          @ & & &                   5 & 4 '       6 ; & /                   & & & @           ",
"          @ & & &                   7 & 8 9       3 / & 0                   & & & @           ",
"          a b b c                   d e f g       h i j j                   k k k l           ",
"          m n n o                   p q p r       s t u v                   w w w x           ",
"          y z z z                   A B C D       E F F G                   H I I J           ",
"          K L L L                   M N N O       P Q R S                   T U U V           ",
"          W X Y Z                   `  . ...+.  @.#.$.$.                    %.&.*.=.          ",
"          -.;.;.>.                    ,.'.).).!.).~.{.].                    ^./.^.(.          ",
"          _.:.<.:.                      [.}.|.|.|.1.2.                      3.3.4.5.          ",
"          6.7.7.8.                        9.0.a.b.c.                        d.d.d.e.          ",
"          f.g.h.h.                                                          i.j.i.k.          ",
"          l.m.m.m.                                                          n.n.n.o.          ",
"          p.q.r.q.                                                          s.t.s.u.          ",
"          v.w.w.w.x.                                                      y.z.z.A.B.          ",
"          C.D.E.F.G.                                                      H.I.I.J.K.          ",
"            L.M.M.N.O.P.                                              Q.R.S.T.S.U.            ",
"            V.W.X.Y.X.X.Y.Y.Y.Z.Y.Y.Y.`.Z.Y.Y.Y.`. + +Z. +Z. +Z. + + + +.+++ +@+#+            ",
"              $+%+&+*+*+=+-+&+=+=+=+=+=+=+=+=+=+=+=+=+;+;+>+;+;+;+;+;+;+;+;+,+'+              ",
"                )+!+~+{+{+]+^+^+^+{+/+(+{+{+{+{+{+(+/+/+/+/+(+(+/+/+/+/+_+:+<+                ",
"                    [+}+|+1+2+2+2+3+2+2+2+2+2+2+2+4+2+2+2+2+4+2+2+5+|+6+7+                    ",
"                                                                                              ",
"                                                                                              ",
"                                                                                              ",
"                                                                                              ",
"                                                                                              "};
