/* XPM */
static const char * a1_xpm[] = {
"47 47 140 2",
"  	c None",
". 	c #000E69",
"+ 	c #001179",
"@ 	c #00117C",
"# 	c #0017A9",
"$ 	c #001ED8",
"% 	c #0023FB",
"& 	c #0024FF",
"* 	c #000E65",
"= 	c #001FDC",
"- 	c #000E64",
"; 	c #0023FD",
"> 	c #001599",
", 	c #001ED6",
"' 	c #000E68",
") 	c #001178",
"! 	c #001DD4",
"~ 	c #001283",
"{ 	c #0021EB",
"] 	c #000B53",
"^ 	c #0019B7",
"/ 	c #000B52",
"( 	c #0023F9",
"_ 	c #0021EF",
": 	c #001CCC",
"< 	c #001389",
"[ 	c #001595",
"} 	c #001280",
"| 	c #001282",
"1 	c #4223DF",
"2 	c #592AFF",
"3 	c #582AFF",
"4 	c #4525E4",
"5 	c #582BFF",
"6 	c #592BFF",
"7 	c #321CB4",
"8 	c #4224DF",
"9 	c #522ADF",
"0 	c #6D33FF",
"a 	c #562CE4",
"b 	c #6E33FF",
"c 	c #3E21B4",
"d 	c #6231DF",
"e 	c #813CFF",
"f 	c #823CFF",
"g 	c #813BFF",
"h 	c #6532E4",
"i 	c #4926B4",
"j 	c #823BFF",
"k 	c #7037DF",
"l 	c #9444FF",
"m 	c #9544FF",
"n 	c #7438E4",
"o 	c #532AB4",
"p 	c #7D3DDF",
"q 	c #A64DFF",
"r 	c #A64CFF",
"s 	c #8240E4",
"t 	c #A54DFF",
"u 	c #5E2FB4",
"v 	c #A54CFF",
"w 	c #8B44DF",
"x 	c #B755FF",
"y 	c #B655FF",
"z 	c #8F46E4",
"A 	c #6734B4",
"B 	c #964BDF",
"C 	c #C65EFF",
"D 	c #C55EFF",
"E 	c #9C4DE5",
"F 	c #C55DFF",
"G 	c #C65DFF",
"H 	c #713AB5",
"I 	c #9F50DF",
"J 	c #D366FF",
"K 	c #D466FF",
"L 	c #8745C5",
"M 	c #C15FF7",
"N 	c #C35FF8",
"O 	c #67359C",
"P 	c #A050DF",
"Q 	c #AA58DF",
"R 	c #E06FFF",
"S 	c #E06EFF",
"T 	c #B35EDF",
"U 	c #EB77FF",
"V 	c #EC77FF",
"W 	c #B662DC",
"X 	c #F680FF",
"Y 	c #F67FFF",
"Z 	c #B663DC",
"` 	c #AB60CD",
" .	c #FF88FF",
"..	c #6A3B82",
"+.	c #6A3C83",
"@.	c #FF88FE",
"#.	c #AA5FCD",
"$.	c #834EA1",
"%.	c #FB8FF6",
"&.	c #FF90F7",
"*.	c #DE7FEB",
"=.	c #DF80EB",
"-.	c #FF91F7",
";.	c #824EA0",
">.	c #E78DE9",
",.	c #FF99F0",
"'.	c #DE87E5",
").	c #69427B",
"!.	c #6A437D",
"~.	c #DF88E6",
"{.	c #FF99F1",
"].	c #E78DEA",
"^.	c #875A9E",
"/.	c #FC9FEA",
"(.	c #FFA1EB",
"_.	c #FFA2EB",
":.	c #FFA2EA",
"<.	c #FFA1EA",
"[.	c #85589B",
"}.	c #A673B8",
"|.	c #FCA8E6",
"1.	c #FFAAE7",
"2.	c #FFAAE6",
"3.	c #FCA8E5",
"4.	c #86639A",
"5.	c #E7A3DE",
"6.	c #FBB0E3",
"7.	c #FFB3E4",
"8.	c #FFB2E4",
"9.	c #FFB2E3",
"0.	c #FFB3E3",
"a.	c #E7A4DE",
"b.	c #856297",
"c.	c #826494",
"d.	c #AA82B9",
"e.	c #BC8EC6",
"f.	c #C292C9",
"g.	c #C191C9",
"h.	c #C191C8",
"i.	c #AA82B8",
"                                                                                              ",
"                                                                                              ",
"                                                                                              ",
"                                                                                              ",
"                                                                                              ",
"                      . + @ @ @ @ @ @ @ @ @ @ @ @ @ @ @ @ @ @ @ @ @ + .                       ",
"                  # $ % & & & & & & & & & & & & & & & & & & & & & & & % $ #                   ",
"              * = & & & & & & & & & & & & & & & & & & & & & & & & & & & & & = -               ",
"              = & & & & & & & & & & & & & & & & & & & & & & & & & & & & & & & =               ",
"            # & & ; >                                                   > ; & & #             ",
"            $ & & >                                                       > & & ,             ",
"          . ; & &                                                           & & % '           ",
"          ) & & &                                                           & & & )           ",
"          @ & & &                                                           & & & @           ",
"          @ & & &                                                           & & & @           ",
"          @ & & &                                                           & & & @           ",
"          @ & & &                             # !                           & & & @           ",
"          @ & & &                         ~ { & & ]                         & & & @           ",
"          @ & & &                     ^ & ; & & & /                         & & & @           ",
"          @ & & &                     & & % ( & & /                         & & & @           ",
"          @ & & &                     _ : < [ & & /                         & & & @           ",
"          @ & & &                           } & & /                         & & & @           ",
"          @ & & &                           ~ & & /                         & & & @           ",
"          @ & & &                           | & & /                         & & & @           ",
"          1 2 3 3                           4 5 6 7                         3 3 3 8           ",
"          9 0 0 0                           a b 0 c                         0 b b 9           ",
"          d e f g                           h f f i                         g j e d           ",
"          k l m l                           n l l o                         l m m k           ",
"          p q r r                           s t r u                         t v q p           ",
"          w x y y                           z y x A                         y y x w           ",
"          B C C D                           E F G H                         F F C B           ",
"          I J J K                           L M N O                         J J J P           ",
"          Q R S S                                                           R R S Q           ",
"          T U V V                                                           V U V T           ",
"          W X Y Y                                                           Y Y Y Z           ",
"          `  . . ...                                                      +. .@. .#.          ",
"          $.%.&.&.*.                                                      =.-.&.%.;.          ",
"            >.,.,.,.'.).                                              !.~.{.{.{.].            ",
"            ^./.(._.:._.(.(._._.(.(._._._.<.(.(.<.(._.(.(._._.(.(._._._.(.(.<./.[.            ",
"              }.|.1.1.2.2.1.2.1.1.1.2.1.1.1.2.1.2.2.1.1.1.1.2.1.1.1.1.2.2.1.3.}.              ",
"                4.5.6.7.7.8.8.7.8.9.7.8.7.9.7.9.9.0.7.0.7.8.9.8.8.0.7.7.6.a.b.                ",
"                    c.d.e.f.g.g.g.g.h.g.g.g.g.g.g.g.g.g.g.g.g.g.g.f.e.i.c.                    ",
"                                                                                              ",
"                                                                                              ",
"                                                                                              ",
"                                                                                              ",
"                                                                                              "};
