/* XPM */
static const char * a2_xpm[] = {
"47 47 212 2",
"  	c None",
". 	c #000E69",
"+ 	c #001179",
"@ 	c #00117C",
"# 	c #0017A9",
"$ 	c #001ED8",
"% 	c #0023FB",
"& 	c #0024FF",
"* 	c #000E65",
"= 	c #001FDC",
"- 	c #000E64",
"; 	c #0023FD",
"> 	c #001599",
", 	c #001ED6",
"' 	c #000E68",
") 	c #001178",
"! 	c #000C57",
"~ 	c #001AB9",
"{ 	c #001ABC",
"] 	c #001ABB",
"^ 	c #001491",
"/ 	c #0016A0",
"( 	c #0022F3",
"_ 	c #000D5F",
": 	c #001BBF",
"< 	c #001DCE",
"[ 	c #0019B1",
"} 	c #001077",
"| 	c #000C5B",
"1 	c #0020E6",
"2 	c #000D61",
"3 	c #0019B5",
"4 	c #001BC1",
"5 	c #000D5E",
"6 	c #001280",
"7 	c #0023F9",
"8 	c #001072",
"9 	c #0021EF",
"0 	c #000E67",
"a 	c #3E22DF",
"b 	c #5329FF",
"c 	c #5428FF",
"d 	c #4624EA",
"e 	c #562AFF",
"f 	c #4123DD",
"g 	c #592BFF",
"h 	c #4324DF",
"i 	c #4F27DF",
"j 	c #6831FF",
"k 	c #6931FF",
"l 	c #2C1784",
"m 	c #642FFA",
"n 	c #6B32FF",
"o 	c #4726CA",
"p 	c #6E33FF",
"q 	c #6F33FF",
"r 	c #532ADF",
"s 	c #5E2FDF",
"t 	c #7D3AFF",
"u 	c #7D39FF",
"v 	c #7E39FF",
"w 	c #7D3AFE",
"x 	c #803BFF",
"y 	c #7C3AFD",
"z 	c #4021A1",
"A 	c #833CFF",
"B 	c #823CFF",
"C 	c #6231DF",
"D 	c #6D36DF",
"E 	c #9042FF",
"F 	c #9043FF",
"G 	c #8A3FFA",
"H 	c #9243FF",
"I 	c #823EF5",
"J 	c #9544FF",
"K 	c #9545FF",
"L 	c #7137DF",
"M 	c #7A3CDF",
"N 	c #A24AFF",
"O 	c #A24BFF",
"P 	c #A34BFF",
"Q 	c #4A2694",
"R 	c #A44CFF",
"S 	c #A44BFF",
"T 	c #A24AFE",
"U 	c #6433C0",
"V 	c #442182",
"W 	c #462488",
"X 	c #472488",
"Y 	c #472489",
"Z 	c #A74DFF",
"` 	c #7E3DDF",
" .	c #8841DF",
"..	c #B353FF",
"+.	c #763BC9",
"@.	c #B454FF",
"#.	c #B555FF",
"$.	c #B554FF",
"%.	c #B654FF",
"&.	c #B655FF",
"*.	c #8F46E4",
"=.	c #B755FF",
"-.	c #B756FF",
";.	c #8B44DF",
">.	c #9349DF",
",.	c #C25BFF",
"'.	c #C25CFF",
").	c #9047DB",
"!.	c #C45CFF",
"~.	c #C45DFF",
"{.	c #C55DFF",
"].	c #9349DD",
"^.	c #C65EFF",
"/.	c #974BDF",
"(.	c #9E4FDF",
"_.	c #D064FF",
":.	c #6937A2",
"<.	c #914AD2",
"[.	c #904AD1",
"}.	c #914AD1",
"|.	c #6A37A2",
"1.	c #D366FF",
"2.	c #D466FF",
"3.	c #A050DF",
"4.	c #A755DF",
"5.	c #DD6DFF",
"6.	c #DD6CFF",
"7.	c #DE6DFF",
"8.	c #E16FFF",
"9.	c #AA58DF",
"0.	c #B25DDF",
"a.	c #E975FF",
"b.	c #EA75FF",
"c.	c #EC78FF",
"d.	c #EC77FF",
"e.	c #B35EDF",
"f.	c #B561DC",
"g.	c #F47EFF",
"h.	c #F37EFF",
"i.	c #F780FF",
"j.	c #F680FF",
"k.	c #F77FFF",
"l.	c #B663DC",
"m.	c #AA5ECD",
"n.	c #FD85FF",
"o.	c #FD86FF",
"p.	c #FE86FF",
"q.	c #683A82",
"r.	c #6A3C83",
"s.	c #FF88FE",
"t.	c #AA5FCC",
"u.	c #834DA2",
"v.	c #FB8DF8",
"w.	c #FF8FF9",
"x.	c #DE7EEC",
"y.	c #DF80EB",
"z.	c #FF91F7",
"A.	c #FB8FF5",
"B.	c #824EA0",
"C.	c #E78BEA",
"D.	c #FF97F2",
"E.	c #FF97F1",
"F.	c #DE86E5",
"G.	c #69417B",
"H.	c #6A437D",
"I.	c #DF88E6",
"J.	c #FF99F0",
"K.	c #FF99F1",
"L.	c #E78DE9",
"M.	c #87599E",
"N.	c #FC9DEB",
"O.	c #FFA0EC",
"P.	c #FF9FEC",
"Q.	c #FFA0EB",
"R.	c #FFA1EB",
"S.	c #FFA1EC",
"T.	c #FFA2EB",
"U.	c #FFA2EA",
"V.	c #FCA0EA",
"W.	c #85599B",
"X.	c #A672B9",
"Y.	c #FCA6E6",
"Z.	c #FFA8E7",
"`.	c #FFA9E8",
" +	c #FFA9E7",
".+	c #FFAAE7",
"++	c #FFAAE6",
"@+	c #FFABE7",
"#+	c #FCA8E6",
"$+	c #A674B8",
"%+	c #86619A",
"&+	c #E7A2DE",
"*+	c #FBADE3",
"=+	c #FFB1E5",
"-+	c #FFB1E4",
";+	c #FFB2E4",
">+	c #FFB3E4",
",+	c #FFB2E3",
"'+	c #FFB3E3",
")+	c #FBB0E3",
"!+	c #E7A3DD",
"~+	c #856198",
"{+	c #826394",
"]+	c #AA81B9",
"^+	c #BC8DC7",
"/+	c #C291C9",
"(+	c #C191C9",
"_+	c #C191C8",
":+	c #C292C9",
"<+	c #BC8EC5",
"[+	c #AA82B9",
"}+	c #826494",
"                                                                                              ",
"                                                                                              ",
"                                                                                              ",
"                                                                                              ",
"                                                                                              ",
"                      . + @ @ @ @ @ @ @ @ @ @ @ @ @ @ @ @ @ @ @ @ @ + .                       ",
"                  # $ % & & & & & & & & & & & & & & & & & & & & & & & % $ #                   ",
"              * = & & & & & & & & & & & & & & & & & & & & & & & & & & & & & = -               ",
"              = & & & & & & & & & & & & & & & & & & & & & & & & & & & & & & & =               ",
"            # & & ; >                                                   > ; & & #             ",
"            $ & & >                                                       > & & ,             ",
"          . ; & &                                                           & & % '           ",
"          ) & & &                                                           & & & )           ",
"          @ & & &                                                           & & & @           ",
"          @ & & &                                                           & & & @           ",
"          @ & & &                                                           & & & @           ",
"          @ & & &                       ! > ~ { ] ^                         & & & @           ",
"          @ & & &                     / ( & & & & ; ( _                     & & & @           ",
"          @ & & &                     : & ; < $ & & & &                     & & & @           ",
"          @ & & &                     [ }       | 1 & & 2                   & & & @           ",
"          @ & & &                                 3 & & }                   & & & @           ",
"          @ & & &                                 4 & & 5                   & & & @           ",
"          @ & & &                               6 7 & (                     & & & @           ",
"          @ & & &                             8 9 & & 0                     & & & @           ",
"          a b b c                           d e e e f                       g g g h           ",
"          i j k k                       l m n n n o                         p q q r           ",
"          s t u v                       w x x y z                           A A B C           ",
"          D E E F                     G H H I                               J J K L           ",
"          M N O P                   Q R S T U V W X X Y                     Z Z Z `           ",
"           .......                  +.@.@.#.@.@.$.%.&.#.*.                  =.-.=.;.          ",
"          >.,.'.,.                  ).!.~.~.!.~.~.{.{.{.].                  ^.^.^./.          ",
"          (._._._.                  :.<.[.[.[.}.[.[.}.<.|.                  1.2.2.3.          ",
"          4.5.6.7.                                                          8.8.8.9.          ",
"          0.a.a.b.                                                          c.d.d.e.          ",
"          f.g.h.g.                                                          i.j.k.l.          ",
"          m.n.o.p.q.                                                      r.s.s.s.t.          ",
"          u.v.w.w.x.                                                      y.z.z.A.B.          ",
"            C.D.E.D.F.G.                                              H.I.J.J.K.L.            ",
"            M.N.O.O.P.O.O.Q.O.O.Q.O.R.S.R.Q.R.S.R.Q.R.R.R.R.T.T.R.R.R.R.U.T.T.V.W.            ",
"              X.Y.Z.Z.Z.`. + + + + + + + + + + + + + + +.+++++.+.+ +++.+.+@+#+$+              ",
"                %+&+*+=+-+=+-+-+;+-+-+-+;+-+-+-+;+;+;+;+;+;+>+;+;+,+;+'+)+!+~+                ",
"                    {+]+^+/+(+(+(+(+(+(+(+(+(+_+(+(+(+(+(+_+(+_+(+:+<+[+}+                    ",
"                                                                                              ",
"                                                                                              ",
"                                                                                              ",
"                                                                                              ",
"                                                                                              "};
