/* XPM */
static const char * a3_xpm[] = {
"47 47 159 2",
"  	c None",
". 	c #000E69",
"+ 	c #001179",
"@ 	c #00117C",
"# 	c #0017A9",
"$ 	c #001ED8",
"% 	c #0023FB",
"& 	c #0024FF",
"* 	c #000E65",
"= 	c #001FDC",
"- 	c #000E64",
"; 	c #0023FD",
"> 	c #001599",
", 	c #001ED6",
"' 	c #000E68",
") 	c #001178",
"! 	c #00117D",
"~ 	c #0019B5",
"{ 	c #001BBF",
"] 	c #001ABC",
"^ 	c #001286",
"/ 	c #0021ED",
"( 	c #000C56",
"_ 	c #0019B1",
": 	c #00138D",
"< 	c #001AB9",
"[ 	c #001DD4",
"} 	c #001074",
"| 	c #000B52",
"1 	c #0020E3",
"2 	c #001283",
"3 	c #000F6F",
"4 	c #0016A2",
"5 	c #0022F7",
"6 	c #001ABB",
"7 	c #4223DF",
"8 	c #582AFF",
"9 	c #582BFF",
"0 	c #27168F",
"a 	c #5328FB",
"b 	c #5329FB",
"c 	c #5629FE",
"d 	c #4E27F4",
"e 	c #2C1AA3",
"f 	c #592BFF",
"g 	c #4324DF",
"h 	c #522ADF",
"i 	c #6E33FF",
"j 	c #6D33FF",
"k 	c #2E1888",
"l 	c #562CE4",
"m 	c #6D32FE",
"n 	c #6231DF",
"o 	c #813CFF",
"p 	c #823CFF",
"q 	c #7838F9",
"r 	c #813BFF",
"s 	c #542AC8",
"t 	c #7137DF",
"u 	c #9444FF",
"v 	c #9544FF",
"w 	c #863FF6",
"x 	c #6A35D8",
"y 	c #7037DF",
"z 	c #7D3DDF",
"A 	c #A64DFF",
"B 	c #9145F2",
"C 	c #462386",
"D 	c #6232BB",
"E 	c #A44CFE",
"F 	c #A64CFF",
"G 	c #5E30B4",
"H 	c #8A44DF",
"I 	c #B655FF",
"J 	c #B755FF",
"K 	c #B153FD",
"L 	c #B554FE",
"M 	c #B354FE",
"N 	c #8B44DF",
"O 	c #954BDF",
"P 	c #C55EFF",
"Q 	c #C65EFF",
"R 	c #C35DFE",
"S 	c #C65DFF",
"T 	c #C55DFF",
"U 	c #C55DFE",
"V 	c #BD5AFC",
"W 	c #562C8A",
"X 	c #964BDF",
"Y 	c #9F50DF",
"Z 	c #D366FF",
"` 	c #D466FF",
" .	c #5C2F8A",
"..	c #9149D0",
"+.	c #B058EC",
"@.	c #B95BF2",
"#.	c #BA5BF2",
"$.	c #AD56E9",
"%.	c #8243C0",
"&.	c #AA57DF",
"*.	c #E06FFF",
"=.	c #E06EFF",
"-.	c #AA58DF",
";.	c #B35EDF",
">.	c #EB77FF",
",.	c #EC77FF",
"'.	c #B663DC",
").	c #F67FFF",
"!.	c #F680FF",
"~.	c #B662DC",
"{.	c #AB60CD",
"].	c #FF88FF",
"^.	c #6A3B82",
"/.	c #6A3C83",
"(.	c #AA5FCD",
"_.	c #834EA1",
":.	c #FB8FF6",
"<.	c #FF91F7",
"[.	c #DE80EB",
"}.	c #DF80EB",
"|.	c #FF90F7",
"1.	c #824EA0",
"2.	c #E78DEA",
"3.	c #FF99F0",
"4.	c #FF99F1",
"5.	c #DE87E4",
"6.	c #69427B",
"7.	c #6A437D",
"8.	c #DF88E5",
"9.	c #E78DE9",
"0.	c #875A9E",
"a.	c #FCA0EA",
"b.	c #FFA2EB",
"c.	c #FFA1EB",
"d.	c #FFA1EA",
"e.	c #FFA2EA",
"f.	c #FC9FEA",
"g.	c #85589B",
"h.	c #A673B8",
"i.	c #FCA8E5",
"j.	c #FFAAE7",
"k.	c #FFAAE6",
"l.	c #86639A",
"m.	c #E7A4DE",
"n.	c #FBB0E3",
"o.	c #FFB3E4",
"p.	c #FFB3E3",
"q.	c #FFB2E4",
"r.	c #FFB2E3",
"s.	c #FBAFE3",
"t.	c #E7A3DE",
"u.	c #856298",
"v.	c #826494",
"w.	c #AA82B9",
"x.	c #BC8EC5",
"y.	c #C292C9",
"z.	c #C191C8",
"A.	c #C191C9",
"B.	c #BC8EC6",
"                                                                                              ",
"                                                                                              ",
"                                                                                              ",
"                                                                                              ",
"                                                                                              ",
"                      . + @ @ @ @ @ @ @ @ @ @ @ @ @ @ @ @ @ @ @ @ @ + .                       ",
"                  # $ % & & & & & & & & & & & & & & & & & & & & & & & % $ #                   ",
"              * = & & & & & & & & & & & & & & & & & & & & & & & & & & & & & = -               ",
"              = & & & & & & & & & & & & & & & & & & & & & & & & & & & & & & & =               ",
"            # & & ; >                                                   > ; & & #             ",
"            $ & & >                                                       > & & ,             ",
"          . ; & &                                                           & & % '           ",
"          ) & & &                                                           & & & )           ",
"          @ & & &                                                           & & & @           ",
"          @ & & &                                                           & & & @           ",
"          @ & & &                                                           & & & @           ",
"          @ & & &                       ! ~ { ] ~ ^                         & & & @           ",
"          @ & & &                       & & & & & % /                       & & & @           ",
"          @ & & &                     ( & _ : < % & & [                     & & & @           ",
"          @ & & &                               } ; & &                     & & & @           ",
"          @ & & &                               | 1 & &                     & & & @           ",
"          @ & & &                               2 ; & <                     & & & @           ",
"          @ & & &                         3 3 4 5 & 6                       & & & @           ",
"          @ & & &                         & & & & ]                         & & & @           ",
"          7 8 8 9                       0 a b 9 8 c d e                     f 8 f g           ",
"          h i j j                             k l j i m                     i i j h           ",
"          n o o p                                 q r p s                   p p r n           ",
"          t u v v                                 w u v x                   u v u y           ",
"          z A A A                     B C       D E F F G                   F A F z           ",
"          H I I I                     J I J K L I I I M                     I J I N           ",
"          O P Q P                     R S P T S S U V W                     Q S Q X           ",
"          Y Z ` Z                      ...+.@.#.$.%.                        Z ` Z Y           ",
"          &.*.=.*.                                                          =.*.=.-.          ",
"          ;.>.,.>.                                                          >.,.>.;.          ",
"          '.).!.).                                                          ).).).~.          ",
"          {.].].].^.                                                      /.].].].(.          ",
"          _.:.<.<.[.                                                      }.|.|.:.1.          ",
"            2.3.4.4.5.6.                                              7.8.3.4.4.9.            ",
"            0.a.b.b.c.b.c.c.c.c.c.c.c.b.b.c.c.c.c.c.b.c.c.c.c.b.c.b.d.c.c.b.e.f.g.            ",
"              h.i.j.k.j.j.j.k.j.k.j.k.j.j.j.k.j.j.k.j.j.k.j.j.j.j.j.j.j.j.k.i.h.              ",
"                l.m.n.o.p.p.q.o.p.o.o.o.q.o.r.p.q.p.p.q.o.q.q.q.r.r.q.q.s.t.u.                ",
"                    v.w.x.y.z.A.z.A.A.A.z.A.A.A.A.A.A.z.A.A.z.A.A.y.B.w.v.                    ",
"                                                                                              ",
"                                                                                              ",
"                                                                                              ",
"                                                                                              ",
"                                                                                              "};
