/* XPM */
static const char * a4_xpm[] = {
"47 47 129 2",
"  	c None",
". 	c #000E69",
"+ 	c #001179",
"@ 	c #00117C",
"# 	c #0017A9",
"$ 	c #001ED8",
"% 	c #0023FB",
"& 	c #0024FF",
"* 	c #000E65",
"= 	c #001FDC",
"- 	c #000E64",
"; 	c #0023FD",
"> 	c #001599",
", 	c #001ED6",
"' 	c #000E68",
") 	c #001178",
"! 	c #00138D",
"~ 	c #001BC6",
"{ 	c #001DD2",
"] 	c #000C58",
"^ 	c #000F71",
"/ 	c #001FDD",
"( 	c #001283",
"_ 	c #001597",
": 	c #001AB9",
"< 	c #001076",
"[ 	c #001077",
"} 	c #0021ED",
"| 	c #000D5E",
"1 	c #0022F7",
"2 	c #522ADF",
"3 	c #6D33FF",
"4 	c #6E33FF",
"5 	c #6C32FE",
"6 	c #562CE5",
"7 	c #5029DA",
"8 	c #6730FB",
"9 	c #5D2EF0",
"0 	c #6231DF",
"a 	c #823CFF",
"b 	c #3B1E92",
"c 	c #803AFE",
"d 	c #823BFF",
"e 	c #813BFF",
"f 	c #813CFF",
"g 	c #7037DF",
"h 	c #9544FF",
"i 	c #9444FF",
"j 	c #442394",
"k 	c #7D3DDF",
"l 	c #A64CFF",
"m 	c #A64DFF",
"n 	c #7C3DDE",
"o 	c #50299B",
"p 	c #8A44DF",
"q 	c #B655FF",
"r 	c #B755FF",
"s 	c #8B44DF",
"t 	c #5A2E9E",
"u 	c #954ADF",
"v 	c #C65EFF",
"w 	c #C65DFF",
"x 	c #C55EFF",
"y 	c #8A45D3",
"z 	c #C35CFE",
"A 	c #C55CFE",
"B 	c #5C3095",
"C 	c #C55DFF",
"D 	c #964BDF",
"E 	c #9F50DF",
"F 	c #D366FF",
"G 	c #D466FF",
"H 	c #5D318F",
"I 	c #5E318F",
"J 	c #AA57DF",
"K 	c #E06EFF",
"L 	c #E06FFF",
"M 	c #AA58DF",
"N 	c #B35EDF",
"O 	c #EC77FF",
"P 	c #EB77FF",
"Q 	c #B663DC",
"R 	c #F67FFF",
"S 	c #F680FF",
"T 	c #AB60CD",
"U 	c #FF88FF",
"V 	c #6A3B82",
"W 	c #6A3C83",
"X 	c #AA5FCD",
"Y 	c #834EA1",
"Z 	c #FB8EF6",
"` 	c #FF90F7",
" .	c #DE80EB",
"..	c #DF80EB",
"+.	c #FF91F7",
"@.	c #824EA0",
"#.	c #E78DE9",
"$.	c #FF99F0",
"%.	c #FF99F1",
"&.	c #DE87E4",
"*.	c #69427B",
"=.	c #6A437D",
"-.	c #DF88E6",
";.	c #875A9D",
">.	c #FCA0EA",
",.	c #FFA1EB",
"'.	c #FFA2EB",
").	c #FFA1EA",
"!.	c #85589B",
"~.	c #A673B8",
"{.	c #FCA8E5",
"].	c #FFAAE7",
"^.	c #FFAAE6",
"/.	c #86639A",
"(.	c #E7A4DD",
"_.	c #FBAFE3",
":.	c #FFB2E4",
"<.	c #FFB3E4",
"[.	c #FFB3E3",
"}.	c #FFB2E3",
"|.	c #FBB0E3",
"1.	c #E7A4DE",
"2.	c #856198",
"3.	c #826494",
"4.	c #AA82B9",
"5.	c #BC8EC6",
"6.	c #C292C9",
"7.	c #C191C9",
"8.	c #C191C8",
"                                                                                              ",
"                                                                                              ",
"                                                                                              ",
"                                                                                              ",
"                                                                                              ",
"                      . + @ @ @ @ @ @ @ @ @ @ @ @ @ @ @ @ @ @ @ @ @ + .                       ",
"                  # $ % & & & & & & & & & & & & & & & & & & & & & & & % $ #                   ",
"              * = & & & & & & & & & & & & & & & & & & & & & & & & & & & & & = -               ",
"              = & & & & & & & & & & & & & & & & & & & & & & & & & & & & & & & =               ",
"            # & & ; >                                                   > ; & & #             ",
"            $ & & >                                                       > & & ,             ",
"          . ; & &                                                           & & % '           ",
"          ) & & &                                                           & & & )           ",
"          @ & & &                                                           & & & @           ",
"          @ & & &                                                           & & & @           ",
"          @ & & &                                                           & & & @           ",
"          @ & & &                             ! ~ {                         & & & @           ",
"          @ & & &                           ] & & &                         & & & @           ",
"          @ & & &                           ~ & & &                         & & & @           ",
"          @ & & &                         ^ & ; & &                         & & & @           ",
"          @ & & &                         & / { & &                         & & & @           ",
"          @ & & &                       { & ( @ & &                         & & & @           ",
"          @ & & &                     _ & :   < & &                         & & & @           ",
"          @ & & &                   [ & }     @ & &                         & & & @           ",
"          @ & & &                 | % 1 |     [ & &                         & & & @           ",
"          2 3 3 4                 5 4 5 6 7 2 8 4 4 9 2                     4 3 4 2           ",
"          0 a a a               b c d d a e a a e e d f                     e d e 0           ",
"          g h i h               j h i i h i h i h h i h                     i i i g           ",
"          k l m m                             n m m o                       l m m k           ",
"          p q q r                             s q q t                       r r r s           ",
"          u v w x                             y z A B                       w w C D           ",
"          E F G G                               H I                         F G G E           ",
"          J K K K                                                           L L K M           ",
"          N O O P                                                           P O O N           ",
"          Q R R S                                                           S R S Q           ",
"          T U U U V                                                       W U U U X           ",
"          Y Z ` `  .                                                      ..+.+.Z @.          ",
"            #.$.$.%.&.*.                                              =.-.$.$.$.#.            ",
"            ;.>.,.,.,.'.'.'.).,.,.,.,.,.).,.,.,.,.'.'.,.'.,.'.'.,.,.'.'.,.,.,.>.!.            ",
"              ~.{.].].].].].].].].].].].].].].].].].^.^.^.].^.^.^.].^.].].].{.~.              ",
"                /.(._.:.<.[.}.:.:.[.:.<.<.[.}.<.:.:.[.<.<.:.}.:.}.:.}.}.|.1.2.                ",
"                    3.4.5.6.7.7.8.7.7.7.7.7.7.7.7.8.7.7.7.7.8.7.7.6.5.4.3.                    ",
"                                                                                              ",
"                                                                                              ",
"                                                                                              ",
"                                                                                              ",
"                                                                                              "};
