/* XPM */
static const char * a5_xpm[] = {
"47 47 154 2",
"  	c None",
". 	c #000E69",
"+ 	c #001179",
"@ 	c #00117C",
"# 	c #0017A9",
"$ 	c #001ED8",
"% 	c #0023FB",
"& 	c #0024FF",
"* 	c #000E65",
"= 	c #001FDC",
"- 	c #000E64",
"; 	c #0023FD",
"> 	c #001599",
", 	c #001ED6",
"' 	c #000E68",
") 	c #001178",
"! 	c #00138A",
"~ 	c #001281",
"{ 	c #001283",
"] 	c #000F6D",
"^ 	c #0023F9",
"/ 	c #001ABB",
"( 	c #001BC1",
"_ 	c #0022F3",
": 	c #001074",
"< 	c #000C57",
"[ 	c #0020E8",
"} 	c #000F6A",
"| 	c #0020E4",
"1 	c #000C5B",
"2 	c #00127F",
"3 	c #001280",
"4 	c #001073",
"5 	c #000C56",
"6 	c #00169B",
"7 	c #001BC0",
"8 	c #4324DF",
"9 	c #592BFF",
"0 	c #582AFF",
"a 	c #4223DF",
"b 	c #4A25ED",
"c 	c #4625E6",
"d 	c #4825EA",
"e 	c #5428FB",
"f 	c #582BFF",
"g 	c #572AFE",
"h 	c #241481",
"i 	c #592AFF",
"j 	c #4323DF",
"k 	c #522ADF",
"l 	c #6E33FF",
"m 	c #6D33FF",
"n 	c #4C28D4",
"o 	c #6C32FE",
"p 	c #5129DB",
"q 	c #6230DF",
"r 	c #823CFF",
"s 	c #823BFF",
"t 	c #7B38FB",
"u 	c #7336F5",
"v 	c #6231DF",
"w 	c #7037DF",
"x 	c #9544FF",
"y 	c #9444FF",
"z 	c #8C41FA",
"A 	c #7D3CEE",
"B 	c #7137DF",
"C 	c #7C3DDF",
"D 	c #A64CFF",
"E 	c #592DAD",
"F 	c #763AD5",
"G 	c #6835C4",
"H 	c #A54DFF",
"I 	c #A64DFF",
"J 	c #7D3DDF",
"K 	c #8A44DF",
"L 	c #B655FF",
"M 	c #B755FF",
"N 	c #B654FE",
"O 	c #A54EF6",
"P 	c #A04DF2",
"Q 	c #B354FE",
"R 	c #954ADF",
"S 	c #C65DFF",
"T 	c #C55DFF",
"U 	c #C55EFF",
"V 	c #C65EFF",
"W 	c #BE5BFD",
"X 	c #582D8F",
"Y 	c #9F50DF",
"Z 	c #D466FF",
"` 	c #D366FF",
" .	c #9B4EDA",
"..	c #BB5CF4",
"+.	c #C15FF7",
"@.	c #C35FF8",
"#.	c #C15FF8",
"$.	c #BB5BF2",
"%.	c #934BD3",
"&.	c #A050DF",
"*.	c #AA58DF",
"=.	c #E06FFF",
"-.	c #E16EFF",
";.	c #E06EFF",
">.	c #B35EDF",
",.	c #EC77FF",
"'.	c #B662DC",
").	c #F67FFF",
"!.	c #F680FF",
"~.	c #AB60CD",
"{.	c #FF88FF",
"].	c #6A3B82",
"^.	c #6A3C83",
"/.	c #AA5FCD",
"(.	c #834EA1",
"_.	c #FB8EF6",
":.	c #FF90F7",
"<.	c #FF91F7",
"[.	c #DE7FEB",
"}.	c #DF80EB",
"|.	c #824EA0",
"1.	c #E78DE9",
"2.	c #FF99F1",
"3.	c #FF99F0",
"4.	c #DE87E4",
"5.	c #69427B",
"6.	c #6A437D",
"7.	c #DF88E5",
"8.	c #875A9E",
"9.	c #FCA0EA",
"0.	c #FFA1EB",
"a.	c #FFA1EA",
"b.	c #FFA2EB",
"c.	c #FC9FEA",
"d.	c #85589B",
"e.	c #A673B8",
"f.	c #FCA8E6",
"g.	c #FFAAE7",
"h.	c #FFAAE6",
"i.	c #86639A",
"j.	c #E7A4DE",
"k.	c #FBB0E3",
"l.	c #FFB3E3",
"m.	c #FFB3E4",
"n.	c #FFB2E4",
"o.	c #FFB2E3",
"p.	c #E7A4DD",
"q.	c #856298",
"r.	c #826494",
"s.	c #AA82B9",
"t.	c #BC8EC6",
"u.	c #C292C9",
"v.	c #C191C8",
"w.	c #C191C9",
"                                                                                              ",
"                                                                                              ",
"                                                                                              ",
"                                                                                              ",
"                                                                                              ",
"                      . + @ @ @ @ @ @ @ @ @ @ @ @ @ @ @ @ @ @ @ @ @ + .                       ",
"                  # $ % & & & & & & & & & & & & & & & & & & & & & & & % $ #                   ",
"              * = & & & & & & & & & & & & & & & & & & & & & & & & & & & & & = -               ",
"              = & & & & & & & & & & & & & & & & & & & & & & & & & & & & & & & =               ",
"            # & & ; >                                                   > ; & & #             ",
"            $ & & >                                                       > & & ,             ",
"          . ; & &                                                           & & % '           ",
"          ) & & &                                                           & & & )           ",
"          @ & & &                                                           & & & @           ",
"          @ & & &                                                           & & & @           ",
"          @ & & &                                                           & & & @           ",
"          @ & & &                       ! ~ ~ ~ ~ ~ { ]                     & & & @           ",
"          @ & & &                       & ^ ^ ^ ^ ^ & /                     & & & @           ",
"          @ & & &                       & & & & & & & (                     & & & @           ",
"          @ & & &                       & _ :                               & & & @           ",
"          @ & & &                     < & [ <                               & & & @           ",
"          @ & & &                     } & | 1                               & & & @           ",
"          @ & & &                     2 & _ # 3 4 5                         & & & @           ",
"          @ & & &                     6 & & & & & & 7                       & & & @           ",
"          8 9 0 0                     a b c d e 9 f 9 g h                   0 f i j           ",
"          k l m l                               n o m l p                   m l l k           ",
"          q r r s                                 t r s u                   s s r v           ",
"          w x y x                                 z y y A                   y x y B           ",
"          C D D D                     E         F D D D G                   H I I J           ",
"          K L M M                     M N O P Q L M L Q                     L L L K           ",
"          R S S T                     T U U T U V V W X                     U S S R           ",
"          Y Z Z `                      ...+.@.#.$.%.                        ` Z Z &.          ",
"          *.=.-.-.                                                          ;.;.-.*.          ",
"          >.,.,.,.                                                          ,.,.,.>.          ",
"          '.).!.).                                                          ).).).'.          ",
"          ~.{.{.{.].                                                      ^.{.{.{./.          ",
"          (._.:.<.[.                                                      }.:.<._.|.          ",
"            1.2.3.3.4.5.                                              6.7.2.2.3.1.            ",
"            8.9.0.a.a.b.b.b.b.b.0.0.0.0.0.b.b.0.b.b.0.b.0.b.a.0.b.b.0.b.0.0.b.c.d.            ",
"              e.f.g.g.g.g.g.h.h.g.g.g.h.h.g.g.g.g.g.g.h.g.g.g.h.g.g.g.h.g.h.f.e.              ",
"                i.j.k.l.m.m.l.n.o.m.n.l.n.m.l.n.o.l.n.l.n.m.l.l.n.m.l.m.k.p.q.                ",
"                    r.s.t.u.v.w.w.w.w.w.w.w.v.w.w.v.v.v.v.w.w.w.w.u.t.s.r.                    ",
"                                                                                              ",
"                                                                                              ",
"                                                                                              ",
"                                                                                              ",
"                                                                                              "};
