/* XPM */
static const char * a6_xpm[] = {
"47 47 219 2",
"  	c None",
". 	c #000E69",
"+ 	c #001179",
"@ 	c #00117C",
"# 	c #0017A9",
"$ 	c #001ED8",
"% 	c #0023FB",
"& 	c #0024FF",
"* 	c #000E65",
"= 	c #001FDC",
"- 	c #000E64",
"; 	c #0023FD",
"> 	c #001599",
", 	c #001ED6",
"' 	c #000E68",
") 	c #001178",
"! 	c #00127F",
"~ 	c #001ABC",
"{ 	c #001CC9",
"] 	c #001CCA",
"^ 	c #000F6F",
"/ 	c #001FDD",
"( 	c #00138C",
"_ 	c #0022F7",
": 	c #0023F9",
"< 	c #00148F",
"[ 	c #000F6A",
"} 	c #001074",
"| 	c #0022F5",
"1 	c #000F6B",
"2 	c #0018AD",
"3 	c #001073",
"4 	c #0021EF",
"5 	c #001AB9",
"6 	c #0017A3",
"7 	c #001CCC",
"8 	c #001BC6",
"9 	c #4023DF",
"0 	c #562AFF",
"a 	c #572AFF",
"b 	c #5729FE",
"c 	c #582AFF",
"d 	c #5629FE",
"e 	c #301BB0",
"f 	c #251483",
"g 	c #341DBE",
"h 	c #562AFE",
"i 	c #582BFF",
"j 	c #592AFF",
"k 	c #301BAE",
"l 	c #5A2BFF",
"m 	c #4424DF",
"n 	c #5129DF",
"o 	c #6B32FF",
"p 	c #6C32FF",
"q 	c #6A32FE",
"r 	c #6D33FF",
"s 	c #5D2EF0",
"t 	c #602EF2",
"u 	c #6E33FF",
"v 	c #5A2DEA",
"w 	c #7034FF",
"x 	c #6F34FF",
"y 	c #542ADF",
"z 	c #602FDF",
"A 	c #803BFF",
"B 	c #7F3BFF",
"C 	c #7837F9",
"D 	c #813BFF",
"E 	c #813CFF",
"F 	c #6331E2",
"G 	c #6632E5",
"H 	c #823CFF",
"I 	c #7537F6",
"J 	c #833CFF",
"K 	c #6332DF",
"L 	c #6F36DF",
"M 	c #9243FF",
"N 	c #9343FF",
"O 	c #6C34DB",
"P 	c #9444FF",
"Q 	c #9443FF",
"R 	c #813EF2",
"S 	c #843EF4",
"T 	c #7238E2",
"U 	c #9645FF",
"V 	c #9644FF",
"W 	c #7138DF",
"X 	c #7B3CDF",
"Y 	c #A44BFF",
"Z 	c #A44CFF",
"` 	c #462387",
" .	c #A54CFF",
"..	c #A54DFF",
"+.	c #A44BFE",
"@.	c #5B2EB0",
"#.	c #5E30B5",
"$.	c #A64DFF",
"%.	c #4C2792",
"&.	c #A74DFF",
"*.	c #A84DFF",
"=.	c #A84EFF",
"-.	c #7F3EDF",
";.	c #8843DF",
">.	c #B454FF",
",.	c #9548EA",
"'.	c #B655FF",
").	c #B654FF",
"!.	c #9A4AEF",
"~.	c #B756FF",
"{.	c #B856FF",
"].	c #8B45DF",
"^.	c #9449DF",
"/.	c #C45DFF",
"(.	c #AA53F1",
"_.	c #C35DFE",
":.	c #C55DFF",
"<.	c #C65DFF",
"[.	c #A953F0",
"}.	c #C65EFF",
"|.	c #974BDF",
"1.	c #9F50DF",
"2.	c #D165FF",
"3.	c #D265FF",
"4.	c #6E39A6",
"5.	c #A051DF",
"6.	c #AC56E9",
"7.	c #9D4FDC",
"8.	c #6E39A7",
"9.	c #D466FF",
"0.	c #D467FF",
"a.	c #A151DF",
"b.	c #A857DF",
"c.	c #DE6EFF",
"d.	c #DF6EFF",
"e.	c #E16FFF",
"f.	c #AA58DF",
"g.	c #B25DDF",
"h.	c #EB75FF",
"i.	c #EA76FF",
"j.	c #EB76FF",
"k.	c #EC78FF",
"l.	c #ED78FF",
"m.	c #ED77FF",
"n.	c #B35EDF",
"o.	c #B661DC",
"p.	c #F47EFF",
"q.	c #F57FFF",
"r.	c #F57EFF",
"s.	c #F680FF",
"t.	c #F780FF",
"u.	c #B763DC",
"v.	c #AA5FCD",
"w.	c #FE87FF",
"x.	c #693A82",
"y.	c #6A3C83",
"z.	c #FF89FF",
"A.	c #FF89FE",
"B.	c #AA5FCC",
"C.	c #834EA1",
"D.	c #FB8DF7",
"E.	c #FF8FF8",
"F.	c #DE7EEC",
"G.	c #DF81EB",
"H.	c #FF91F6",
"I.	c #FF91F7",
"J.	c #FB8FF6",
"K.	c #824EA0",
"L.	c #E78CEA",
"M.	c #FF98F1",
"N.	c #FF97F1",
"O.	c #DE86E6",
"P.	c #69427C",
"Q.	c #6A437D",
"R.	c #DF88E5",
"S.	c #FF99F0",
"T.	c #FF9AF0",
"U.	c #E78DE9",
"V.	c #875A9E",
"W.	c #FC9EEA",
"X.	c #FFA1EC",
"Y.	c #FFA0EB",
"Z.	c #FFA0EC",
"`.	c #FFA1EB",
" +	c #FFA2EC",
".+	c #FFA2EB",
"++	c #FFA2EA",
"@+	c #FCA0EA",
"#+	c #85599B",
"$+	c #A672B8",
"%+	c #FCA7E6",
"&+	c #FFA8E8",
"*+	c #FFA9E7",
"=+	c #FFA9E8",
"-+	c #FFAAE7",
";+	c #FFA9E6",
">+	c #FFAAE6",
",+	c #FCA8E6",
"'+	c #A673B8",
")+	c #86639A",
"!+	c #E7A2DE",
"~+	c #FBAEE2",
"{+	c #FFB1E4",
"]+	c #FFB2E4",
"^+	c #FFB1E3",
"/+	c #FFB2E3",
"(+	c #FFB3E4",
"_+	c #FFB3E3",
":+	c #FBB0E2",
"<+	c #E7A4DE",
"[+	c #856298",
"}+	c #826394",
"|+	c #AA81B9",
"1+	c #BC8EC6",
"2+	c #C291C9",
"3+	c #C191C9",
"4+	c #C292C9",
"5+	c #AA82B9",
"6+	c #826494",
"                                                                                              ",
"                                                                                              ",
"                                                                                              ",
"                                                                                              ",
"                                                                                              ",
"                      . + @ @ @ @ @ @ @ @ @ @ @ @ @ @ @ @ @ @ @ @ @ + .                       ",
"                  # $ % & & & & & & & & & & & & & & & & & & & & & & & % $ #                   ",
"              * = & & & & & & & & & & & & & & & & & & & & & & & & & & & & & = -               ",
"              = & & & & & & & & & & & & & & & & & & & & & & & & & & & & & & & =               ",
"            # & & ; >                                                   > ; & & #             ",
"            $ & & >                                                       > & & ,             ",
"          . ; & &                                                           & & % '           ",
"          ) & & &                                                           & & & )           ",
"          @ & & &                                                           & & & @           ",
"          @ & & &                                                           & & & @           ",
"          @ & & &                                                           & & & @           ",
"          @ & & &                           ! ~ { ] { ^                     & & & @           ",
"          @ & & &                         / % & & & & (                     & & & @           ",
"          @ & & &                       _ & : <     [ }                     & & & @           ",
"          @ & & &                     # & | 1                               & & & @           ",
"          @ & & &                     & & 2                                 & & & @           ",
"          @ & & &                   3 & _ !                                 & & & @           ",
"          @ & & &                   2 & 4 > 5 & & & 6                       & & & @           ",
"          @ & & &                   7 & ; & % 8 : & & 5                     & & & @           ",
"          9 0 a 0                   b c a d e f g h i j k                   l l l m           ",
"          n o p p                   q r r s       t u u v                   w x w y           ",
"          z A A B                   C D E F       G H H I                   J J J K           ",
"          L M M N                   O P Q R       S P P T                   U V U W           ",
"          X Y Y Z                   `  ...+.@.  #.+.$.$.%.                  &.*.=.-.          ",
"          ;.>.>.>.                    ,.'.'.).'.).'.'.!.                    ~.{.{.].          ",
"          ^./././.                      (._.:.:.<._.[.                      }.}.}.|.          ",
"          1.2.3.3.                        4.5.6.7.8.                        9.9.0.a.          ",
"          b.c.d.c.                                                          e.e.e.f.          ",
"          g.h.i.j.                                                          k.l.m.n.          ",
"          o.p.q.r.                                                          s.t.s.u.          ",
"          v.w.w.w.x.                                                      y.z.A.A.B.          ",
"          C.D.E.E.F.                                                      G.H.I.J.K.          ",
"            L.M.N.M.O.P.                                              Q.R.S.S.T.U.            ",
"            V.W.X.Y.Z.`.Z.Z.Y.Z.X.`.`.`.`.`.X. +`.`.`.`..+.+`..+`.++`..+.+++.+@+#+            ",
"              $+%+&+*+*+*+=+*+*+*+*+*+*+*+-+;+>+-+-+*+*+-+-+>+>+-+-+-+>+>+>+,+'+              ",
"                )+!+~+{+]+]+^+{+]+]+{+]+]+]+]+]+/+]+]+]+]+/+(+_+]+]+/+(+:+<+[+                ",
"                    }+|+1+2+3+3+3+3+3+3+3+3+3+3+3+3+3+3+3+3+3+3+3+4+1+5+6+                    ",
"                                                                                              ",
"                                                                                              ",
"                                                                                              ",
"                                                                                              ",
"                                                                                              "};
