/* XPM */
static const char * a7_xpm[] = {
"47 47 136 2",
"  	c None",
". 	c #000E69",
"+ 	c #001179",
"@ 	c #00117C",
"# 	c #0017A9",
"$ 	c #001ED8",
"% 	c #0023FB",
"& 	c #0024FF",
"* 	c #000E65",
"= 	c #001FDC",
"- 	c #000E64",
"; 	c #0023FD",
"> 	c #001599",
", 	c #001ED6",
"' 	c #000E68",
") 	c #001178",
"! 	c #0020E6",
"~ 	c #0017A3",
"{ 	c #0016A0",
"] 	c #001ABC",
"^ 	c #0022F7",
"/ 	c #001FDD",
"( 	c #001281",
"_ 	c #0023F9",
": 	c #000B53",
"< 	c #001FE1",
"[ 	c #001BC4",
"} 	c #00169B",
"| 	c #000B52",
"1 	c #0021ED",
"2 	c #0019B7",
"3 	c #001595",
"4 	c #522ADF",
"5 	c #6E33FF",
"6 	c #361D9E",
"7 	c #6D33FF",
"8 	c #6A31FD",
"9 	c #6D32FF",
"0 	c #6231DF",
"a 	c #813BFF",
"b 	c #5E2FD9",
"c 	c #823BFF",
"d 	c #823CFF",
"e 	c #5C2DD5",
"f 	c #7037DF",
"g 	c #9444FF",
"h 	c #9544FF",
"i 	c #8E42FC",
"j 	c #432394",
"k 	c #7137DF",
"l 	c #7D3DDF",
"m 	c #A64DFF",
"n 	c #A64CFF",
"o 	c #4F2899",
"p 	c #9D49FA",
"q 	c #8A44DF",
"r 	c #B655FF",
"s 	c #8040D4",
"t 	c #B755FF",
"u 	c #8E45E2",
"v 	c #964ADF",
"w 	c #C55DFF",
"x 	c #C65EFF",
"y 	c #B356F7",
"z 	c #C65DFF",
"A 	c #C55EFF",
"B 	c #7A3EC2",
"C 	c #954BDF",
"D 	c #9F50DF",
"E 	c #D366FF",
"F 	c #D466FF",
"G 	c #C861FB",
"H 	c #D064FE",
"I 	c #D165FE",
"J 	c #6937A0",
"K 	c #AA58DF",
"L 	c #E06EFF",
"M 	c #E16FFF",
"N 	c #703CA0",
"O 	c #6E3B9E",
"P 	c #6C3A9B",
"Q 	c #B35EDF",
"R 	c #EB77FF",
"S 	c #EC77FF",
"T 	c #B662DC",
"U 	c #F67FFF",
"V 	c #F680FF",
"W 	c #AB60CD",
"X 	c #FF88FF",
"Y 	c #FF88FE",
"Z 	c #6A3B82",
"` 	c #6A3C83",
" .	c #AA5FCD",
"..	c #834EA1",
"+.	c #FB8EF6",
"@.	c #FF90F7",
"#.	c #FF91F7",
"$.	c #DE80EB",
"%.	c #DF81EB",
"&.	c #FB8FF6",
"*.	c #824EA0",
"=.	c #E78DE9",
"-.	c #FF99F0",
";.	c #FF99F1",
">.	c #DE87E5",
",.	c #69427B",
"'.	c #6A437D",
").	c #DF88E5",
"!.	c #E78DEA",
"~.	c #875A9E",
"{.	c #FCA0EA",
"].	c #FFA1EB",
"^.	c #FFA1EA",
"/.	c #FFA2EB",
"(.	c #FC9FEA",
"_.	c #85589B",
":.	c #A673B8",
"<.	c #FCA8E6",
"[.	c #FFAAE7",
"}.	c #FFAAE6",
"|.	c #86639A",
"1.	c #E7A4DE",
"2.	c #FBB0E3",
"3.	c #FFB2E4",
"4.	c #FFB3E3",
"5.	c #FFB2E3",
"6.	c #FFB3E4",
"7.	c #E7A3DE",
"8.	c #856197",
"9.	c #826494",
"0.	c #AA82B9",
"a.	c #BC8EC5",
"b.	c #C292C9",
"c.	c #C191C8",
"d.	c #C191C9",
"e.	c #BC8EC6",
"                                                                                              ",
"                                                                                              ",
"                                                                                              ",
"                                                                                              ",
"                                                                                              ",
"                      . + @ @ @ @ @ @ @ @ @ @ @ @ @ @ @ @ @ @ @ @ @ + .                       ",
"                  # $ % & & & & & & & & & & & & & & & & & & & & & & & % $ #                   ",
"              * = & & & & & & & & & & & & & & & & & & & & & & & & & & & & & = -               ",
"              = & & & & & & & & & & & & & & & & & & & & & & & & & & & & & & & =               ",
"            # & & ; >                                                   > ; & & #             ",
"            $ & & >                                                       > & & ,             ",
"          . ; & &                                                           & & % '           ",
"          ) & & &                                                           & & & )           ",
"          @ & & &                                                           & & & @           ",
"          @ & & &                                                           & & & @           ",
"          @ & & &                                                           & & & @           ",
"          @ & & &                                                           & & & @           ",
"          @ & & &                     ! = = = = = = = = $                   & & & @           ",
"          @ & & &                     & & & & & & & & & %                   & & & @           ",
"          @ & & &                     # ~ ~ ~ ~ { ] ^ & /                   & & & @           ",
"          @ & & &                                 ( _ & :                   & & & @           ",
"          @ & & &                                 < & [                     & & & @           ",
"          @ & & &                               } & &                       & & & @           ",
"          @ & & &                             | 1 & 2                       & & & @           ",
"          @ & & &                             3 & &                         & & & @           ",
"          4 5 5 5                           6 7 5 8                         7 5 9 4           ",
"          0 a a a                           b c d e                         d c d 0           ",
"          f g g h                           i h g j                         g g g k           ",
"          l m n m                         o n n p                           m m m l           ",
"          q r r r                         s t r u                           r r r q           ",
"          v w x w                         y z A B                           x w A C           ",
"          D E F F                         G H I J                           F E F D           ",
"          K L M L                         N O P                             L L L K           ",
"          Q R R S                                                           S R S Q           ",
"          T U U U                                                           U V U T           ",
"          W X Y X Z                                                       ` X X X  .          ",
"          ..+.@.#.$.                                                      %.@.@.&.*.          ",
"            =.-.-.;.>.,.                                              '.).;.-.-.!.            ",
"            ~.{.].].].^.].].]./.].]././.]./././././.].]./././././.]./.]./.^.].(._.            ",
"              :.<.[.[.}.[.[.}.}.[.}.[.[.[.[.[.[.[.[.[.[.[.[.}.[.[.}.[.[.}.}.<.:.              ",
"                |.1.2.3.4.3.5.5.6.4.5.6.3.6.3.6.4.6.5.6.3.3.6.5.3.3.3.3.2.7.8.                ",
"                    9.0.a.b.c.d.c.d.d.d.d.d.d.d.d.d.c.d.d.d.c.d.d.b.e.0.9.                    ",
"                                                                                              ",
"                                                                                              ",
"                                                                                              ",
"                                                                                              ",
"                                                                                              "};
