/* XPM */
static const char * a8_xpm[] = {
"47 47 172 2",
"  	c None",
". 	c #000E69",
"+ 	c #001179",
"@ 	c #00117C",
"# 	c #0017A9",
"$ 	c #001ED8",
"% 	c #0023FB",
"& 	c #0024FF",
"* 	c #000E65",
"= 	c #001FDC",
"- 	c #000E64",
"; 	c #0023FD",
"> 	c #001599",
", 	c #001ED6",
"' 	c #000E68",
") 	c #001178",
"! 	c #0016A2",
"~ 	c #001BC4",
"{ 	c #001CCA",
"] 	c #001BC6",
"^ 	c #00169E",
"/ 	c #000F6A",
"( 	c #0022F1",
"_ 	c #000D61",
": 	c #001DD2",
"< 	c #001595",
"[ 	c #000E67",
"} 	c #001BC2",
"| 	c #001071",
"1 	c #000E66",
"2 	c #0017A6",
"3 	c #0017A5",
"4 	c #000F6B",
"5 	c #0021ED",
"6 	c #0021EB",
"7 	c #000C58",
"8 	c #001CCC",
"9 	c #001493",
"0 	c #000C56",
"a 	c #001283",
"b 	c #4224DF",
"c 	c #592AFF",
"d 	c #592BFF",
"e 	c #582BFF",
"f 	c #4223DD",
"g 	c #5629FE",
"h 	c #582AFF",
"i 	c #562AFE",
"j 	c #4725E9",
"k 	c #5228FA",
"l 	c #5729FE",
"m 	c #4022DA",
"n 	c #4223DF",
"o 	c #522ADF",
"p 	c #6E33FF",
"q 	c #6D33FF",
"r 	c #3C21B0",
"s 	c #6A32FC",
"t 	c #311A8D",
"u 	c #572CE6",
"v 	c #3D21B1",
"w 	c #6230DF",
"x 	c #823BFF",
"y 	c #823CFF",
"z 	c #7C3AFC",
"A 	c #813CFF",
"B 	c #582DD1",
"C 	c #7E3AFE",
"D 	c #7D39FC",
"E 	c #813BFF",
"F 	c #6231DF",
"G 	c #7137DF",
"H 	c #9444FF",
"I 	c #9544FF",
"J 	c #9343FE",
"K 	c #9443FE",
"L 	c #5E2FC5",
"M 	c #9143FE",
"N 	c #7D3DDF",
"O 	c #A64DFF",
"P 	c #A64CFF",
"Q 	c #773BD8",
"R 	c #9747F7",
"S 	c #9D49FA",
"T 	c #8A44DF",
"U 	c #B655FF",
"V 	c #B755FF",
"W 	c #B554FE",
"X 	c #B654FE",
"Y 	c #A14DF4",
"Z 	c #B053FD",
"` 	c #6F39BF",
" .	c #954ADF",
"..	c #C65DFF",
"+.	c #C65EFF",
"@.	c #C55DFF",
"#.	c #6735A7",
"$.	c #C45DFE",
"%.	c #C55EFF",
"&.	c #C55DFE",
"*.	c #A150E9",
"=.	c #954BDF",
"-.	c #A050DF",
";.	c #D366FF",
">.	c #623294",
",.	c #A854E6",
"'.	c #BF5EF6",
").	c #C45FF8",
"!.	c #C15FF7",
"~.	c #B65AF0",
"{.	c #8042BE",
"].	c #D466FF",
"^.	c #9F50DF",
"/.	c #AA58DF",
"(.	c #E06FFF",
"_.	c #E06EFF",
":.	c #B35EDF",
"<.	c #EB77FF",
"[.	c #EC77FF",
"}.	c #B662DC",
"|.	c #F67FFF",
"1.	c #F680FF",
"2.	c #AB60CD",
"3.	c #FF88FF",
"4.	c #6A3B82",
"5.	c #6A3C83",
"6.	c #AA5FCD",
"7.	c #834EA1",
"8.	c #FB8EF6",
"9.	c #FF91F7",
"0.	c #FF90F7",
"a.	c #DE80EB",
"b.	c #DF80EB",
"c.	c #FB8FF6",
"d.	c #824EA0",
"e.	c #E78DE9",
"f.	c #FF99F1",
"g.	c #FF99F0",
"h.	c #DE87E4",
"i.	c #69427B",
"j.	c #6A437D",
"k.	c #DF88E5",
"l.	c #875A9E",
"m.	c #FCA0EA",
"n.	c #FFA2EB",
"o.	c #FFA1EB",
"p.	c #FFA1EA",
"q.	c #FFA2EA",
"r.	c #FC9FEA",
"s.	c #85599B",
"t.	c #A673B8",
"u.	c #FCA8E5",
"v.	c #FFAAE7",
"w.	c #FFAAE6",
"x.	c #FCA8E6",
"y.	c #86639A",
"z.	c #E7A3DD",
"A.	c #FBAFE3",
"B.	c #FFB3E3",
"C.	c #FFB3E4",
"D.	c #FFB2E3",
"E.	c #FFB2E4",
"F.	c #FBB0E3",
"G.	c #E7A4DE",
"H.	c #856298",
"I.	c #826494",
"J.	c #AA82B9",
"K.	c #BC8EC6",
"L.	c #C292C9",
"M.	c #C191C9",
"N.	c #C191C8",
"O.	c #AA82B8",
"                                                                                              ",
"                                                                                              ",
"                                                                                              ",
"                                                                                              ",
"                                                                                              ",
"                      . + @ @ @ @ @ @ @ @ @ @ @ @ @ @ @ @ @ @ @ @ @ + .                       ",
"                  # $ % & & & & & & & & & & & & & & & & & & & & & & & % $ #                   ",
"              * = & & & & & & & & & & & & & & & & & & & & & & & & & & & & & = -               ",
"              = & & & & & & & & & & & & & & & & & & & & & & & & & & & & & & & =               ",
"            # & & ; >                                                   > ; & & #             ",
"            $ & & >                                                       > & & ,             ",
"          . ; & &                                                           & & % '           ",
"          ) & & &                                                           & & & )           ",
"          @ & & &                                                           & & & @           ",
"          @ & & &                                                           & & & @           ",
"          @ & & &                                                           & & & @           ",
"          @ & & &                         ! ~ { ] ^                         & & & @           ",
"          @ & & &                     / ( & & & & & ( _                     & & & @           ",
"          @ & & &                     & & & : < $ & & &                     & & & @           ",
"          @ & & &                   [ & & }       } & & |                   & & & @           ",
"          @ & & &                   1 & & 2       3 & & 4                   & & & @           ",
"          @ & & &                     5 & {       { & 6                     & & & @           ",
"          @ & & &                     7 8 & , 9 , & ] 0                     & & & @           ",
"          @ & & &                       a & & & & & a                       & & & @           ",
"          b c d e                     f g h i j k h l m                     e e h n           ",
"          o p q q                   r q q s t     u p p v                   q p p o           ",
"          w x y x                   z A A B         C A D                   E E x F           ",
"          G H I H                   J I K L         M I K                   H H H G           ",
"          N O P P                   Q O O R       Q P O S                   P O O N           ",
"          T U V U                     W V U X Y Z V V U `                   U U U T           ",
"           ...+.@.                    #.$.@.+.+.%...&.*.                    %.+.+.=.          ",
"          -.;.;.;.                      >.,.'.).!.~.{.                      ].].].^.          ",
"          /.(._.(.                                                          _.(._./.          ",
"          :.<.[.<.                                                          [.<.[.:.          ",
"          }.|.|.1.                                                          |.1.1.}.          ",
"          2.3.3.3.4.                                                      5.3.3.3.6.          ",
"          7.8.9.0.a.                                                      b.0.9.c.d.          ",
"            e.f.g.g.h.i.                                              j.k.g.g.f.e.            ",
"            l.m.n.o.o.p.n.n.q.o.o.o.o.n.q.n.o.n.q.o.o.n.o.n.o.n.o.o.o.o.n.n.o.r.s.            ",
"              t.u.v.w.v.v.w.w.w.v.v.v.v.v.v.v.v.v.w.w.w.v.v.w.w.v.v.w.v.w.w.x.t.              ",
"                y.z.A.B.C.D.D.D.D.E.C.B.E.B.B.E.C.E.E.E.C.C.E.B.E.E.C.E.F.G.H.                ",
"                    I.J.K.L.M.M.N.M.M.M.M.N.N.M.M.M.M.M.M.M.M.M.M.L.K.O.I.                    ",
"                                                                                              ",
"                                                                                              ",
"                                                                                              ",
"                                                                                              ",
"                                                                                              "};
