/* XPM */
static const char * a9_xpm[] = {
"47 47 236 2",
"  	c None",
". 	c #001BBD",
"+ 	c #0022F1",
"@ 	c #0024FF",
"# 	c #001BBE",
"$ 	c #0021EB",
"% 	c #0020E0",
"& 	c #0022EE",
"* 	c #0024FB",
"= 	c #00138D",
"- 	c #0021E9",
"; 	c #0021E8",
"> 	c #00138B",
", 	c #0024FE",
"' 	c #0016A0",
") 	c #001ABF",
"! 	c #0022EF",
"~ 	c #001ABD",
"{ 	c #0021EF",
"] 	c #0023FB",
"^ 	c #001597",
"/ 	c #001EDE",
"( 	c #001ED5",
"_ 	c #001072",
": 	c #00159A",
"< 	c #0024FD",
"[ 	c #0023F6",
"} 	c #0023FC",
"| 	c #0023F9",
"1 	c #001DCE",
"2 	c #0018B1",
"3 	c #0025FF",
"4 	c #001BBF",
"5 	c #001FDC",
"6 	c #00127F",
"7 	c #0020E5",
"8 	c #001181",
"9 	c #0018AB",
"0 	c #0016A3",
"a 	c #0022F0",
"b 	c #0022F3",
"c 	c #0021EC",
"d 	c #0017A4",
"e 	c #0023F5",
"f 	c #001AB8",
"g 	c #0022F4",
"h 	c #3425FF",
"i 	c #5128FF",
"j 	c #5127FF",
"k 	c #5228FF",
"l 	c #4525EF",
"m 	c #5529FF",
"n 	c #5328FE",
"o 	c #5629FF",
"p 	c #572AFF",
"q 	c #592BFF",
"r 	c #5A2BFF",
"s 	c #3928FF",
"t 	c #412BFF",
"u 	c #6730FF",
"v 	c #6630FF",
"w 	c #6731FF",
"x 	c #4026D9",
"y 	c #6A31FF",
"z 	c #6B31FF",
"A 	c #6B32FF",
"B 	c #572DF0",
"C 	c #4826D1",
"D 	c #6632FE",
"E 	c #6A31FE",
"F 	c #6F33FF",
"G 	c #6F34FF",
"H 	c #472DFF",
"I 	c #4F31FF",
"J 	c #7B38FF",
"K 	c #7B39FF",
"L 	c #4A27BB",
"M 	c #7C3AFE",
"N 	c #803BFF",
"O 	c #7C3AFD",
"P 	c #833CFF",
"Q 	c #5433FF",
"R 	c #5A35FF",
"S 	c #8E41FF",
"T 	c #8F42FF",
"U 	c #6D39F1",
"V 	c #9244FF",
"W 	c #9344FF",
"X 	c #7A3BEB",
"Y 	c #9544FF",
"Z 	c #9645FF",
"` 	c #6038FF",
" .	c #663BFF",
"..	c #A04AFF",
"+.	c #A14AFF",
"@.	c #6133C9",
"#.	c #A14BFE",
"$.	c #A54BFF",
"%.	c #A54CFF",
"&.	c #4D2691",
"*.	c #A74DFF",
"=.	c #6B3EFF",
"-.	c #7140FF",
";.	c #B152FF",
">.	c #B153FF",
",.	c #B252FF",
"'.	c #9346E6",
").	c #994AEF",
"!.	c #783CD1",
"~.	c #7239C9",
"{.	c #994AF1",
"].	c #B454FF",
"^.	c #B554FF",
"/.	c #9147E9",
"(.	c #B755FF",
"_.	c #B756FF",
":.	c #B856FF",
"<.	c #7543FF",
"[.	c #7B46FF",
"}.	c #C05BFF",
"|.	c #C15BFF",
"1.	c #9E4EE8",
"2.	c #C35CFF",
"3.	c #C35DFF",
"4.	c #C45CFF",
"5.	c #C05AFE",
"6.	c #A451F2",
"7.	c #C75EFF",
"8.	c #C65EFF",
"9.	c #7F49FF",
"0.	c #844CFF",
"a.	c #CF63FF",
"b.	c #CF64FF",
"c.	c #7640C4",
"d.	c #9F53FB",
"e.	c #AC58F9",
"f.	c #AF59F9",
"g.	c #A857F9",
"h.	c #9C53F8",
"i.	c #7942C8",
"j.	c #D566FF",
"k.	c #D467FF",
"l.	c #D567FF",
"m.	c #884EFF",
"n.	c #8D50FF",
"o.	c #DC6BFF",
"p.	c #DC6CFF",
"q.	c #DD6CFF",
"r.	c #E16FFF",
"s.	c #E26FFF",
"t.	c #9053FF",
"u.	c #9557FF",
"v.	c #E874FF",
"w.	c #E975FF",
"x.	c #ED78FF",
"y.	c #EC78FF",
"z.	c #EC77FF",
"A.	c #995AFF",
"B.	c #9C5CF8",
"C.	c #F37DFF",
"D.	c #F680FF",
"E.	c #F780FF",
"F.	c #9F5EF8",
"G.	c #9F5DE7",
"H.	c #FD85FF",
"I.	c #FC85FF",
"J.	c #6A3975",
"K.	c #6C3B77",
"L.	c #FF88FF",
"M.	c #FF89FE",
"N.	c #A05FE5",
"O.	c #8651B3",
"P.	c #F489F8",
"Q.	c #FF8EF9",
"R.	c #DB7DEC",
"S.	c #DC80EA",
"T.	c #FF91F7",
"U.	c #F28CF4",
"V.	c #8552AF",
"W.	c #CC7EF0",
"X.	c #FF97F3",
"Y.	c #FF97F2",
"Z.	c #DB85E6",
"`.	c #6C4173",
" +	c #6C4272",
".+	c #DC87E4",
"++	c #FF99F0",
"@+	c #FF9AF0",
"#+	c #CB80ED",
"$+	c #8B5CAA",
"%+	c #F498EB",
"&+	c #FF9FED",
"*+	c #FF9FEC",
"=+	c #FFA0EC",
"-+	c #FFA0EB",
";+	c #FF9FEB",
">+	c #FFA1EC",
",+	c #FFA1EB",
"'+	c #FFA2EB",
")+	c #FFA2EA",
"!+	c #F49CEA",
"~+	c #8A5DA6",
"{+	c #A372C6",
"]+	c #F4A1E8",
"^+	c #FFA8E8",
"/+	c #FFA8E7",
"(+	c #FFA7E8",
"_+	c #FFA9E7",
":+	c #FFA9E8",
"<+	c #FFAAE7",
"[+	c #FFAAE6",
"}+	c #FFABE6",
"|+	c #F4A4E6",
"1+	c #A375C5",
"2+	c #8B65A5",
"3+	c #CB92E5",
"4+	c #F2A8E2",
"5+	c #FFB0E5",
"6+	c #FFB1E4",
"7+	c #FFB0E4",
"8+	c #FFB2E4",
"9+	c #FFB2E3",
"0+	c #FFB3E4",
"a+	c #F2ABE1",
"b+	c #CB94E4",
"c+	c #8A66A2",
"d+	c #8567A5",
"e+	c #A07CD4",
"f+	c #A383E6",
"g+	c #A383EC",
"h+	c #A384EC",
"i+	c #A385EC",
"j+	c #A385EB",
"k+	c #A384E6",
"l+	c #A07ED4",
"m+	c #8568A4",
"                                                                                              ",
"                                                                                              ",
"                                                                                              ",
"                                                                                              ",
"                                                                                              ",
"                      . + @ @ @ @ @ @ @ @ @ @ @ @ @ @ @ @ @ @ @ @ @ + #                       ",
"                  $ % & * @ @ @ @ @ @ @ @ @ @ @ @ @ @ @ @ @ @ @ @ @ * & % $                   ",
"              = - @ @ @ @ @ @ @ @ @ @ @ @ @ @ @ @ @ @ @ @ @ @ @ @ @ @ @ @ @ ; >               ",
"              - @ @ @ @ @ @ @ @ @ @ @ @ @ @ @ @ @ @ @ @ @ @ @ @ @ @ @ @ @ @ @ -               ",
"            $ @ @ , '                                                   ' , @ @ -             ",
"            % @ @ '                                                       ' @ @ %             ",
"          ) ! @ @                                                           @ @ & ~           ",
"          { ] @ @                                                           @ @ ] {           ",
"          @ @ @ @                                                           @ @ @ @           ",
"          @ @ @ @                                                           @ @ @ @           ",
"          @ @ @ @                                                           @ @ @ @           ",
"          @ @ @ @                           ^ / ( _                         @ @ @ @           ",
"          @ @ @ @                       : < [ } ] | 1                       @ @ @ @           ",
"          @ @ @ @                     2 @ @ @ @ @ @ 3 2                     @ @ @ @           ",
"          @ @ @ @                     3 @ [ 4     5 @ 3                     @ @ @ @           ",
"          @ @ @ @                   6 @ @ 7       8 + @ 9                   @ @ @ @           ",
"          @ @ @ @                   0 @ @ ]         a @ b                   @ @ @ @           ",
"          @ @ @ @                   > @ @ c       d e @ @                   @ @ @ @           ",
"          @ @ @ @                     3 @ + f     g @ @ ,                   @ @ @ @           ",
"          h i j k                     l m m m n o o o p m                   q r r s           ",
"          t u v w                       x y z A B C D A E                   F G G H           ",
"          I J K K                                 L M N O                   P P P Q           ",
"          R S S T                                 U V W X                   Y Y Z `           ",
"           .....+.                              @.#.$.%.&.                  *.*.*.=.          ",
"          -.;.>.,.                    '.).!.~.{.].^.^./.                    (._.:.<.          ",
"          [.}.|.}.                    1.2.2.2.3.4.5.6.                      7.8.7.9.          ",
"          0.a.b.a.                    c.d.e.f.g.h.i.                        j.k.l.m.          ",
"          n.o.p.q.                                                          r.r.s.t.          ",
"          u.v.v.w.                                                          x.y.z.A.          ",
"          B.C.C.C.                                                          D.E.D.F.          ",
"          G.H.I.H.J.                                                      K.L.M.M.N.          ",
"          O.P.Q.Q.R.                                                      S.T.T.U.V.          ",
"            W.X.Y.X.Z.`.                                               +.+++@+@+#+            ",
"            $+%+&+*+*+*+*+=+*+*+=+-+;+=+=+>+-+-+=+>+,+,+,+,+,+,+,+,+,+'+)+,+'+!+~+            ",
"              {+]+^+/+(+^+^+^+/+^+_+/+/+_+_+/+:+_+_+_+_+_+_+<+<+[+<+<+}+}+[+|+1+              ",
"                2+3+4+5+6+5+7+7+7+6+6+6+6+6+6+6+8+8+9+8+9+8+9+0+0+8+0+9+a+b+c+                ",
"                    d+e+f+g+g+g+g+g+h+g+h+h+h+h+h+h+h+h+i+i+i+i+j+i+k+l+m+                    ",
"                                                                                              ",
"                                                                                              ",
"                                                                                              ",
"                                                                                              ",
"                                                                                              "};
