/* XPM */
static const char * ARROW_xpm[] = {
"70 70 80 1",
" 	c None",
".	c #1F212A",
"+	c #1E1F29",
"@	c #252A36",
"#	c #1F212B",
"$	c #1E2029",
"%	c #2F3847",
"&	c #7AA6D6",
"*	c #3E4E65",
"=	c #1E202A",
"-	c #364356",
";	c #76A0CF",
">	c #78A3D3",
",	c #7BA7D8",
"'	c #465A74",
")	c #1E1F28",
"!	c #78A2D2",
"~	c #78A2D3",
"{	c #77A1D1",
"]	c #42546C",
"^	c #354153",
"/	c #79A4D4",
"(	c #678AB3",
"_	c #5C799E",
":	c #7CA8D9",
"<	c #364256",
"[	c #749DCB",
"}	c #3F4E65",
"|	c #4E6583",
"1	c #465974",
"2	c #7DABDD",
"3	c #597497",
"4	c #7BA6D8",
"5	c #3E4D65",
"6	c #77A1D0",
"7	c #41526A",
"8	c #506887",
"9	c #7DA9DB",
"0	c #485C77",
"a	c #7CA9DB",
"b	c #3C4B61",
"c	c #556F90",
"d	c #79A5D5",
"e	c #42536C",
"f	c #415169",
"g	c #607EA4",
"h	c #79A3D4",
"i	c #323C4D",
"j	c #759ECD",
"k	c #7197C4",
"l	c #1D1F28",
"m	c #364255",
"n	c #7AA4D5",
"o	c #7BA6D7",
"p	c #232733",
"q	c #232732",
"r	c #222632",
"s	c #2C3342",
"t	c #7AA5D6",
"u	c #536C8D",
"v	c #83B3E8",
"w	c #7EAADC",
"x	c #546E8F",
"y	c #546D8D",
"z	c #7AA6D7",
"A	c #749CCB",
"B	c #6485AC",
"C	c #404F67",
"D	c #4D6381",
"E	c #495D79",
"F	c #1F222C",
"G	c #7CA7DA",
"H	c #607FA4",
"I	c #79A4D5",
"J	c #7CA7D9",
"K	c #77A0D0",
"L	c #41526B",
"M	c #6080A6",
"N	c #2B3342",
"O	c #556F91",
"                                                                      ",
"                                                                      ",
"                                                                      ",
"                                                                      ",
"                                                                      ",
"                                                                      ",
"                                                                      ",
"                                                                      ",
"                                                                      ",
"                                                                      ",
"                                                                      ",
"                                                                      ",
"                                                                      ",
"                                                                      ",
"                                        .                             ",
"                                       +@#                            ",
"                                      $%&*=                           ",
"                                     $-;>,')                          ",
"                                    +%;!>~{]$                         ",
"                                   $^/~!(_,:])                        ",
"                                  $<[!!!;}|,{1=                       ",
"                                  $<[!!!!2}3/45$                      ",
"                                   $^/~!!!6789/0+                     ",
"                                    +%;!!!!abc!/*=                    ",
"                                     $-;~!!!dec9,')                   ",
"                                      $%/!!!!db8/{]$                  ",
"                                       +^[~!!!afgh:])                 ",
"                                        $i&~!!!jk>!{'=                ",
"                                         li[!!!!!!!!,*+               ",
"         #################################$mn!!!!!!oo/0+              ",
"        ##pqqqqqqqqqqqqqqqqqqqqqqqqqqqqqqqrst!!!!!ouc!/5=             ",
"        #pvwwwwwwwwwwwwwwwwwwwwwwwwwwwwwwww9!!!!!!!!exo,')            ",
"        #qw!!!!!!!!!!!!!!!!!!!!!!!!!!!!!!!!!!!!!!!!!!yo!{]$           ",
"        #qw!!!!!!!!!!!!!!!!!!!!!!!!!!!!!!!!!!!!!!!!!!zAB4:])          ",
"        #qw!!!!!!!!!!!!!!!!!!!!!!!!!!!!!!!!!!!!!!!!!!!!CDt{EF         ",
"        #qw!!!!!!!!!!!!!!!!!!!!!!!!!!!!!!!!!!!!!!!!!!!!GH/{EF         ",
"        #qw!!!!!!!!!!!!!!!!!!!!!!!!!!!!!!!!!!!!!!!!!!!!!IJ])          ",
"        #qw!!!!!!!!!!!!!!!!!!!!!!!!!!!!!!!!!!!!!!!!!K;!!{]$           ",
"        #pvwwwwwwwwwwwwwwwwwwwwwwwwwwwwwwww9!!!!!!!ILMn41)            ",
"        ##pqqqqqqqqqqqqqqqqqqqqqqqqqqqqqqqrNt!!!!!abO!/5=             ",
"         #################################$mn!!!!6789/0+              ",
"                                         li[!!!!2}3/4*+               ",
"                                        $i&~!!!6}|,{1=                ",
"                                       +^[~!!!a73,J])                 ",
"                                      $%/!!!!db8/{]$                  ",
"                                     $-;~!!!dec941)                   ",
"                                    +%;!!!!abc!/*=                    ",
"                                   $^/~!!!6789/0+                     ",
"                                  $<[!!!!2}3/45$                      ",
"                                  $<[!!!;}|,{1=                       ",
"                                   $^/~!(_,J])                        ",
"                                    +%;!>~{]$                         ",
"                                     $-;>41)                          ",
"                                      $%t*=                           ",
"                                       +@#                            ",
"                                        .                             ",
"                                                                      ",
"                                                                      ",
"                                                                      ",
"                                                                      ",
"                                                                      ",
"                                                                      ",
"                                                                      ",
"                                                                      ",
"                                                                      ",
"                                                                      ",
"                                                                      ",
"                                                                      ",
"                                                                      ",
"                                                                      "};
