/* XPM */
static const char * DOUBLE_xpm[] = {
"8 47 27 1",
" 	c None",
".	c #0024FF",
"+	c #6E33FF",
"@	c #6D33FF",
"#	c #813BFF",
"$	c #823CFF",
"%	c #813CFF",
"&	c #823BFF",
"*	c #9444FF",
"=	c #9544FF",
"-	c #A64CFF",
";	c #A64DFF",
">	c #B755FF",
",	c #B655FF",
"'	c #C55EFF",
")	c #C65DFF",
"!	c #C55DFF",
"~	c #C65EFF",
"{	c #D366FF",
"]	c #D466FF",
"^	c #E16FFF",
"/	c #E06FFF",
"(	c #E06EFF",
"_	c #EC77FF",
":	c #EB77FF",
"<	c #F680FF",
"[	c #F67FFF",
"        ",
"        ",
"        ",
"        ",
"        ",
"        ",
"        ",
"        ",
"        ",
"        ",
"        ",
"        ",
"........",
"........",
"........",
"........",
"........",
"........",
"........",
"........",
"........",
"........",
"        ",
"        ",
"        ",
"+@++++@@",
"##$%&$$&",
"******=*",
"-;--;--;",
">>,>>>,,",
"'))!))~'",
"{]]{]]]]",
"^^/(^///",
"_____::_",
"<<<[[[<[",
"        ",
"        ",
"        ",
"        ",
"        ",
"        ",
"        ",
"        ",
"        ",
"        ",
"        ",
"        "};
