/* XPM */
static const char * PBONUS_xpm[] = {
"32 8 199 2",
"  	c None",
". 	c #777578",
"+ 	c #837E84",
"@ 	c #8B868C",
"# 	c #948E94",
"$ 	c #9C979D",
"% 	c #A5A0A4",
"& 	c #ACA7AE",
"* 	c #B5B0B5",
"= 	c #BEB8BE",
"- 	c #C5C0C6",
"; 	c #CDC9CE",
"> 	c #D5D0D6",
", 	c #DED8DD",
"' 	c #E4DFE6",
") 	c #EBE6EB",
"! 	c #F0EBF0",
"~ 	c #ECE6EC",
"{ 	c #E6E0E6",
"] 	c #DFD9DE",
"^ 	c #D7D1D7",
"/ 	c #CFCACF",
"( 	c #C7C2C7",
"_ 	c #BFB9BF",
": 	c #B6B1B6",
"< 	c #AFA9AF",
"[ 	c #A5A1A5",
"} 	c #9E989E",
"| 	c #958F95",
"1 	c #8D888D",
"2 	c #858085",
"3 	c #797779",
"4 	c #B179B4",
"5 	c #EE81F6",
"6 	c #F082F7",
"7 	c #F083F7",
"8 	c #F183F7",
"9 	c #F385F8",
"0 	c #F485F9",
"a 	c #F487F9",
"b 	c #F687FA",
"c 	c #F688FA",
"d 	c #F789FB",
"e 	c #F88AFC",
"f 	c #F98BFC",
"g 	c #FA8DFD",
"h 	c #FB8DFD",
"i 	c #FC8FFD",
"j 	c #FB8EFD",
"k 	c #FB8EFC",
"l 	c #FA8EFB",
"m 	c #FA8EFA",
"n 	c #F98DFA",
"o 	c #FA8DF9",
"p 	c #F98DF8",
"q 	c #F88CF7",
"r 	c #F78CF6",
"s 	c #F78CF5",
"t 	c #F78CF4",
"u 	c #F68BF3",
"v 	c #B57FB3",
"w 	c #BA80B7",
"x 	c #FF8EFA",
"y 	c #FF8EFB",
"z 	c #FF8FFA",
"A 	c #FF8FF9",
"B 	c #FF90F9",
"C 	c #FF90F8",
"D 	c #FF91F7",
"E 	c #FF90F7",
"F 	c #FF91F6",
"G 	c #FF92F6",
"H 	c #FF93F5",
"I 	c #FF94F5",
"J 	c #FF95F4",
"K 	c #FF96F4",
"L 	c #FF96F3",
"M 	c #FF97F3",
"N 	c #FF98F3",
"O 	c #FF98F2",
"P 	c #FF99F2",
"Q 	c #BA87B3",
"R 	c #B987B1",
"S 	c #FF9BF0",
"T 	c #FF9CEF",
"U 	c #FF9DEF",
"V 	c #FF9DEE",
"W 	c #FF9EEE",
"X 	c #FF9EED",
"Y 	c #FF9FED",
"Z 	c #FFA0ED",
"` 	c #FFA0EC",
" .	c #FFA1EC",
"..	c #FFA2EC",
"+.	c #FFA3EB",
"@.	c #FFA4EB",
"#.	c #FFA4EA",
"$.	c #FFA5EA",
"%.	c #FFA6E9",
"&.	c #FFA7E9",
"*.	c #BA8DAF",
"=.	c #BA8EAE",
"-.	c #FFA8E7",
";.	c #FFA9E7",
">.	c #FFAAE7",
",.	c #FFAAE6",
"'.	c #FFABE6",
").	c #FFACE6",
"!.	c #FFADE7",
"~.	c #FFADE6",
"{.	c #FFAEE6",
"].	c #FFAFE6",
"^.	c #FFB0E6",
"/.	c #FFB0E5",
"(.	c #FFB1E5",
"_.	c #FFB2E4",
":.	c #FFB3E4",
"<.	c #BA95AC",
"[.	c #BA94AC",
"}.	c #FFB6E4",
"|.	c #FFB7E4",
"1.	c #FFB7E3",
"2.	c #FFB8E3",
"3.	c #FFB8E2",
"4.	c #FFB9E3",
"5.	c #FFBAE2",
"6.	c #FFBAE3",
"7.	c #FFBCE2",
"8.	c #FFBDE2",
"9.	c #FFBDE3",
"0.	c #FFBEE2",
"a.	c #FFBFE2",
"b.	c #FFC0E2",
"c.	c #FFC1E3",
"d.	c #FFC2E3",
"e.	c #BB9BAB",
"f.	c #B498A6",
"g.	c #F6BEDA",
"h.	c #F7BEDB",
"i.	c #F7C0DC",
"j.	c #F7C0DD",
"k.	c #F8C2DD",
"l.	c #F9C3DE",
"m.	c #FAC3DF",
"n.	c #FAC4DF",
"o.	c #FBC6E0",
"p.	c #FCC6E1",
"q.	c #FCC8E0",
"r.	c #FDC9E2",
"s.	c #FDCAE2",
"t.	c #FECBE2",
"u.	c #FECBE3",
"v.	c #FFCCE3",
"w.	c #FECCE3",
"x.	c #FDCBE2",
"y.	c #FCCBE1",
"z.	c #FCCAE1",
"A.	c #FBCBE1",
"B.	c #FBCADF",
"C.	c #FBCBDF",
"D.	c #FACADF",
"E.	c #F9C9DE",
"F.	c #F8C9DE",
"G.	c #F7C9DD",
"H.	c #F7C9DC",
"I.	c #F6C9DC",
"J.	c #F6C8DC",
"K.	c #B59EA8",
"L.	c #787777",
"M.	c #848183",
"N.	c #8C898A",
"O.	c #949293",
"P.	c #9D9A9B",
"Q.	c #A5A3A4",
"R.	c #ADABAC",
"S.	c #B5B3B5",
"T.	c #BFBCBD",
"U.	c #C6C4C4",
"V.	c #CECCCD",
"W.	c #D6D3D5",
"X.	c #DDDCDD",
"Y.	c #E6E3E4",
"Z.	c #EBEAEB",
"`.	c #F1EFEF",
" +	c #ECEBEB",
".+	c #E7E4E5",
"++	c #DEDDDD",
"@+	c #D7D4D6",
"#+	c #CFCDCE",
"$+	c #C7C6C5",
"%+	c #C0BDBE",
"&+	c #B7B5B5",
"*+	c #AFACAE",
"=+	c #A6A4A5",
"-+	c #9E9C9C",
";+	c #959395",
">+	c #8D8B8B",
",+	c #858384",
"'+	c #797879",
". + @ # $ % & * = - ; > , ' ) ! ! ~ { ] ^ / ( _ : < [ } | 1 2 3 ",
"4 5 6 7 8 9 0 a b c d e f g h i i j k k l m n o p q r s t u u v ",
"w x y x z A A B C C D E D F D G G H H I I J J K L M N N O O P Q ",
"R S T T U U V W W X Y Y Z Z `  . .....+.+.+.@.@.#.$.$.$.%.%.&.*.",
"=.-.-.-.;.;.>.,.>.'.'.).).!.!.~.~.{.{.].].^././.(.(._._._.:.:.<.",
"[.}.}.|.|.|.1.2.3.4.4.5.5.6.6.5.7.7.7.8.8.9.0.0.a.a.b.b.c.c.d.e.",
"f.g.h.i.j.k.l.m.n.o.p.q.r.s.t.u.v.w.x.y.z.A.B.C.D.E.F.G.H.I.J.K.",
"L.M.N.O.P.Q.R.S.T.U.V.W.X.Y.Z.`.`. +.+++@+#+$+%+&+*+=+-+;+>+,+'+"};
