/* XPM */
static const char * SLASH_xpm[] = {
"15 47 82 1",
" 	c None",
".	c #0024FF",
"+	c #492EFF",
"@	c #6E33FF",
"#	c #6D33FF",
"$	c #3B2BFF",
"%	c #7238FF",
"&	c #813CFF",
"*	c #823CFF",
"=	c #813BFF",
"-	c #823BFF",
";	c #382DFF",
">	c #9444FF",
",	c #9544FF",
"'	c #A64CFF",
")	c #A64DFF",
"!	c #B655FF",
"~	c #B754FF",
"{	c #AE53FF",
"]	c #593DFF",
"^	c #C65EFF",
"/	c #C65DFF",
"(	c #C55DFF",
"_	c #C55EFF",
":	c #8D4DFF",
"<	c #7548FF",
"[	c #D466FF",
"}	c #D366FF",
"|	c #7047FF",
"1	c #A35AFF",
"2	c #E06EFF",
"3	c #E16EFF",
"4	c #E06FFF",
"5	c #E16FFF",
"6	c #6043FF",
"7	c #E072FF",
"8	c #EB77FF",
"9	c #EC77FF",
"0	c #F680FF",
"a	c #F67FFF",
"b	c #FF88FF",
"c	c #FF88FE",
"d	c #F081FF",
"e	c #FF91F7",
"f	c #FF90F7",
"g	c #B16FF8",
"h	c #795BF7",
"i	c #FF99F1",
"j	c #FF99F0",
"k	c #8461F6",
"l	c #976DF2",
"m	c #FFA1EB",
"n	c #FFA2EB",
"o	c #FFA2EA",
"p	c #6A58F6",
"q	c #C98EEB",
"r	c #FFAAE7",
"s	c #FFAAE6",
"t	c #FBAFE3",
"u	c #FFB3E4",
"v	c #FFB2E4",
"w	c #FFB2E3",
"x	c #FFBBE2",
"y	c #ECAFE3",
"z	c #FFC3E1",
"A	c #FFC4E1",
"B	c #FFC4E2",
"C	c #AB8EE9",
"D	c #6B6BF1",
"E	c #FFCCE2",
"F	c #8179EF",
"G	c #807CF1",
"H	c #FFD5E4",
"I	c #FFD4E4",
"J	c #FFD5E3",
"K	c #6A6DF3",
"L	c #A39AEE",
"M	c #FFDDE6",
"N	c #FFDDE7",
"O	c #DACAED",
"P	c #FFE6EB",
"Q	c #FFE5EB",
"       ........",
"       ........",
"       ....... ",
"       ....... ",
"       ....... ",
"      ........ ",
"      ........ ",
"      ........ ",
"      .......  ",
"      .......  ",
"      .......  ",
"     ........  ",
"     ........  ",
"     ........  ",
"     .......   ",
"     .......   ",
"     .......   ",
"     .......   ",
"    ........   ",
"    .......    ",
"    .......    ",
"    .......    ",
"    .......    ",
"    .......    ",
"    .......    ",
"   +@#@###$    ",
"   %&*=*=-;    ",
"   >>>>>>,     ",
"   '))))')     ",
"   !!!!!~{     ",
"  ]^/(^(_:     ",
"  <[}[[[[|     ",
"  12342546     ",
"  7899998      ",
"  000aa0a      ",
"  bbccbbd      ",
"  efefefg      ",
" hiiiiijk      ",
" lmnmnonp      ",
" qrrrsss       ",
" tuuvwwu       ",
" xxxxxxy       ",
" zAzBAzC       ",
"DEEEEEEF       ",
"GHIHIHJK       ",
"LMNNNNN        ",
"OPPQPQP        "};
