/* XPM */
static const char * TBONUS_xpm[] = {
"32 32 3 1",
" 	c None",
".	c #0024FF",
"+	c #FF00E9",
"................................",
"................................",
"................................",
"................................",
"..+++......................+++..",
"..++++++................++++++..",
"..++++++++++++....++++++++++++..",
"...++++++++++++++++++++++++++...",
" .....++++++++++++++++++++++... ",
"   .....+++++++++++++++++....   ",
"     .....+++++++++++++....     ",
"       ....++++++++++....       ",
"         ....++++++....         ",
"           ....++....           ",
"             ......             ",
"               ..               ",
"               ..               ",
"             ......             ",
"           ..........           ",
"         ......+.......         ",
"       .......+..........       ",
"     ............+.........     ",
"   ............+.............   ",
" .............................. ",
"................................",
"...............+++..............",
"...........+++++++++++..........",
"...++++++++++++++++++++++++++...",
"..++++++++++++++++++++++++++++..",
"..++++++++++++++++++++++++++++..",
"................................",
"................................"};
